/* XPM */
static char *result[] = {
/* columns rows colors chars-per-pixel */
"64 64 84 1 ",
"  c #060607",
". c #060608",
"X c #0E0F13",
"o c #0F1014",
"O c #111216",
"+ c #15161A",
"@ c #353C45",
"# c #383E47",
"$ c #383F48",
"% c #3B424D",
"& c #3E4651",
"* c #414753",
"= c #414955",
"- c #454D5A",
"; c #484E5D",
": c #47505D",
"> c #49515F",
", c #4C5564",
"< c #4E5867",
"1 c #4F5968",
"2 c #515767",
"3 c #515867",
"4 c #515769",
"5 c #535C6C",
"6 c #565F70",
"7 c #595F70",
"8 c #57606F",
"9 c #576071",
"0 c #5A6375",
"q c #5D6679",
"w c #5F687B",
"e c #616577",
"r c #61677A",
"t c #626A7D",
"y c #696D7D",
"u c #656E82",
"i c #686E81",
"p c #677084",
"a c #6A7286",
"s c #6C758B",
"d c #6F788F",
"f c #717585",
"g c #70778E",
"h c #71798E",
"j c #747C94",
"k c #787F96",
"l c #777F98",
"z c #787F99",
"x c #778097",
"c c #7A8195",
"v c #778098",
"b c #7B839C",
"n c #7F87A1",
"m c #81869A",
"M c #82899C",
"N c #8087A0",
"B c #838BA4",
"V c #888FA6",
"C c #868EA9",
"Z c #888FA9",
"A c #8991A6",
"S c #8790AB",
"D c #8B92AD",
"F c #9097AE",
"G c #9198AE",
"H c #8D95B1",
"J c #9097B1",
"K c #939BB5",
"L c #989FB6",
"P c #979EB9",
"I c #989FB8",
"U c #9AA0B7",
"Y c #9BA2BC",
"T c #A0A7BF",
"R c #A1A8BF",
"E c #9FA6C0",
"W c #A0A7C0",
"Q c #A4ABC4",
"! c #A8AEC7",
"~ c #A9AFC8",
"^ c #ACB2CB",
"/ c #B0B6CE",
"( c #B1B7D0",
") c #B2B8D0",
/* pixels */
"................................................................",
".*tffffi7&=0fffffst3@>rafffff0;#4yffffff7&&7ifffffi6$-0ffffffu*.",
".rKQQQQYN0uCQQQQQQKl2sJQQQ!QQHa5vIQQQQQQBuqBEQQQQQPn6pDQQQQQQJq.",
".,kBBBBns46sBBBBBBbu,qkBBBBBBjq,ubBBBBBNs65sNBBBBBnp<0dBBBBCCj2.",
".&5<&<551&=165,*551,%:155;:555-%,555=,151&&155,=465<%-165;-655$.",
".;r7=5ujjasddu5;qajdisjdt,<tdhsaddsq;6uddssdja8=7pdjasjju4;rsp>.",
".rVk<jFYUYYYYDs5BKPYYPYPCqrAPYYYUPKm5sHPYYYYUDh<bKPPPPYPSi0CPJu.",
".m~L,G^//^(^^^M0Q^///^^^^sh^^)^^//^R9C^///^^/^D1I^////^/^ci~^^m.",
".0vs<aBJKHKKHnu5jSKKKJKHb9qbHKKKKHSj5inKKKHKKBp<dBKKKKKJbr6lDC9.",
".=01%5qpu0quuq,&9tit9wuu0;:0tuq9uuw6&<quu00upq1&6quu9qui0,-0tq-.",
".&qq<0tq6-;9ww05qt05%,0ww69ww0,&5wwq50ww9;-6qw03qwq5&,0tw95wr0*.",
".6nJJJDSj6qlHHHHHHCa<unHHHHHHnt<sBHHHHHDlq9jSJJJHHCd5qvKJHHKHB5.",
".c^^^^^^!yh!^^^^^^^U5V~^^^^^^!B8Y^^^^^^^!sa!^^^^^^^E0b!^^^^^^!c.",
".iKYYYYYDqpHYYYYYYKb<jKYYEYYYKh5BKYYYYYYDurDYYYYYEUV9sGYYYYYEKi.",
" ,sjsjxjt,1pjkkdxxsq=9avjdjkja6;qskjdjkjp<,thxjsjxdw:5ukljdlks;.",
" %,;@:,<<&=<1<&%,<<,%:11,&&,<<;%,<<,$-,<<==<<<=%,<<<&-1<<&%,<<%.",
" ,ir;qjnnbbnns0<iknnbnnbs15abBbbbBxt,0dnnbbnnd0,qjnnbnnns63pbj, ",
".aKB<bYWWWWQWYh9DYEQEQEEUtpKWWEQWWYD5jYWQEQWWYb1BYEEEEEWPseKYYa ",
".hTV<VW!!!!!!Ex0UQ!!!~!QYaaY!!!!~~QK5bY~!Q~!!WM1DQ~~!!Q!YhtYQQh ",
".4st,tvSSSSSCk01sbSCCCCBs89dBSCCSSba3rkDDCCSSlw,ibSSSSSSj95sBc5 ",
" &5,#,599>,995;%<895;1995==5993-596<%:599,,696,%,899:<995-&555&.",
".-israsaq:,tsspusdp0&6ussipsdt5=0asatassw,,wssptsspq-1uasuisgi;.",
".qDIPPYKB0tCPPPUPPDc<hSPIPPPPSs5bHPPPPPPCr0BKPPPPUHb8pSUPPIIIDq.",
".m())((//pc))))))))Y5D))))))))A5Q)))))))/ja/))))(((^qM)))))))/M.",
".0ZKKKPHb9tBKKKKPKSj1aCKKKKKPCa5kSKKKKKKnq0bKKKKPKHv5pBPKKKKKC0.",
".-ti0uppq-,qaauqpai5&1tasqtsat<=9tsuqtsuq,:qpau0ppi0=<qastwpst-.",
".*6,%,9q035009:&5900,5q06--5005,0001%,6q01<q09,%<900<5q05;&606*.",
".5du,ibDHDHDHvq5sBHHHHHCd69jDHDHHHBs<tzHHDHHHbu,pnHJDDHDk06dCn4.",
".kWF<V!~^^^~^Wc0Y!^!^!^!QasQ!^^^^~!U6mQ^^~~~~QB1K!~^^^^^QjtW~!k ",
".iHm,bPEYYEYYKd9SUEEYEEYDttKYYYYYEUS5jPYYEEEEUc1MUEYYYYYKaqDYKi ",
".,u0-0svbkkbba9>udvvkvvlp15uvbcjvbdw,9abvvxvbsq:qdbvhxbba5,ukg, ",
".$,-@-,,,%%,<,&%,,,:@=,,,%%,,,=#:,,:#&,,,%%,,,&@-,,,%=>,,%$,,,$ ",
".,hvxvvxp<5abbvxbbhq:0sbbxvbbs9:wjbbjvbbp5<pvbvkvbju,8abbvvbbd,.",
".aUEEEEYGqaKYEEYYYYB1xPEEEEEYPj8BYEEEEEYKprGYEEEEEYD9dPYEWEEEPa.",
".jQ~~^^!WthW^^^~^^QK5MQ^~~^~^Qb9UQ~~~~~~WspW!~~~!!!YqxQ~^~~~~!h.",
" 5nSHDHBd80jDDHDDDnp<uvHDHDHDvw1anHHDDHSj09dCHHDHDBs1qlSDHHSDb5.",
" &67>8005=-50q5,009<%,800110q6,%1900,9q06==9008,9005&:9q052009&.",
" -05&8taatuaaw<=0papqyppq:,qppu0app9&1qsattaat5&6uaaqtaaq,;0ui-.",
" enj,sSPPKKPPBp5bDKPKPPKbqqbKPKPKUDx5pBPKPPKKSa<jSPKPKPKBt0bJZ0.",
" m/I,K/)()))))Mq^))()))))gh)))()(()!9V(())))))F5Y))))))))ci)))M.",
" enj,jSPUPPPPSa5bJPPPKPKnqqBKUPPUPHv5aSPPPPPPDd<jHPUPPPPCt9BJDr ",
".;q6&5tsappasw1;0psatsasq,,wsaptssp0=1tsspiaau5&9usatpsat,:qai-.",
".&66-5091&=8901:908,%:699,<008:%<999:5091-&5905;6995&-5992>906&.",
" 4bCSSDBs89xSSSSSSbp,uvSSSSSSvq<pnSSSSSSd96dBSSSSSna1qkSDZSDDv4.",
".hW!!~!!YthY!!!!!!QJ1MW~!!!~!Eb5KQ~!!Q~QEspYQ!!!~!QU0xR!!!!~!Qh.",
".aYWWWWYKqaUEQEEEYYV1bYWQEEEEUc5VYQEEEEEKatKRWWWEQYH6jPWQWWQWIf.",
".2jbvbnvp<1sbnbbnbjq>qdbnbbbbj0,tjbbbbnba55pbbbcbnvu,6snnzzbbj,.",
" %,,$;<<<%&<<<-%<1,:%=<<<&&,<<&%,<<,%:<<<%%<<<:%,,<,$-,,<=&<<4$.",
" ,t0=0dvxjjxxa6,whvjdjvju<1ukvjjxvdq:9avxjjvva9:qdxxhjvvp5,yjs, ",
".iDb,cKYYYEYYJs5VUEEYEYYDttHYYYYYYUB5hKYYYYYYKx1bPYYYYYYJa0DUKt ",
" k!G,D~^^^^^^!b0Y^^^^^^^!as!^^^^^^~Y9M~^^^^^^~B1K!^^^^^^!xwQ^!c ",
" 7ju,pnHJJJJJbw5dBJHHHJSj90xDJDJJJBd1tbJJJHJHnu<aBHJJHJJxq8dCB5.",
" *74%<0ww58wq9>&80qq10qq9=:8qq03qwq1&,9ww55wq0,%10qq59qw9;=600=.",
".=rt7tiu0=,qppq0tpw9&1qppq0ppq<&9wpp0qptq::0uuu6upt9-,0ppq0iaq-.",
".7VKKKKHb9qbJKKKKKSh1sBKKKKKKBp1jSKKKKKJbq0bKKKKKKDx5tBKKKKKKB9.",
".m//^//^^pc^/////)^U5S^^//^//^A8Y^(^/////ha^^/^/^)^!qm^)(^////m.",
".tHPPPPKV0uSUUYPPPHn,dHYYYPEYDd6bKUYUYYKCu0BKPYPYPKn6sCPYUYYPHw.",
".;uddddsw>1udddddds9&6pddddddu5&qadddddsu,,usdddddsq;1uddddddp:.",
".&6666661&=15691664,%-19556555:%,18899654&&46666565<%-66696651&.",
".<lBCCCna59dnSBSCCzu,ulnSnCSnj0,pbSBSnSnd66dnBBCCBnp<9dCBBBCCl<.",
".rCHDHSSn9uBHDDHHDSl1dnDHDHDDCs4nSDDDDHSnu0nSZHDHHCn6pBDDDDDHBw.",
".0BHDHHSB9unDHDDDDCl,dSDHDDDHBs1lCDDDHHDnu0nDHDHHSCn6pBHDHDHHBw.",
".-azllldu;,ulbvllld6&6slvvlllp5-9dbllvlju>;ujlzzlld0;4uzzzzzzp;.",
".X+++++++XXO+++++++XX+++++++++XXX++++++++XXO+++++++OXo++++++++X."
};
