/* XPM */
static char *result[] = {
/* columns rows colors chars-per-pixel */
"64 64 229 2 ",
"   c #3F027D",
".  c #7C0457",
"X  c #4D027C",
"o  c #57017A",
"O  c #65017C",
"+  c #69017A",
"@  c #7E0476",
"#  c #75037C",
"$  c #7E037B",
"%  c #AF043C",
"&  c #B10337",
"*  c #B3023D",
"=  c #B9013C",
"-  c #C2013D",
";  c #C90139",
":  c #960345",
">  c #9C0545",
",  c #9B034B",
"<  c #97024B",
"1  c #9C0251",
"2  c #98025F",
"3  c #80055C",
"4  c #A30646",
"5  c #A3044C",
"6  c #AB054D",
"7  c #AB0747",
"8  c #B40343",
"9  c #B4034C",
"0  c #BA034B",
"q  c #BC0244",
"w  c #A30353",
"e  c #AC0453",
"r  c #AC045C",
"t  c #A40258",
"y  c #B30553",
"u  c #BC0454",
"i  c #B3035D",
"p  c #BC035B",
"a  c #B50A5B",
"s  c #8B0669",
"d  c #9A0265",
"f  c #81037D",
"g  c #890679",
"h  c #95077B",
"j  c #9B097D",
"k  c #980879",
"l  c #AA046D",
"z  c #B40464",
"x  c #BB0263",
"c  c #B50A64",
"v  c #B4046D",
"b  c #B5096A",
"n  c #BA0B6B",
"m  c #BB036B",
"M  c #AC0D75",
"N  c #A20D7A",
"B  c #A8097B",
"V  c #B20273",
"C  c #BB0473",
"Z  c #B40C73",
"A  c #B80A74",
"S  c #BD047C",
"D  c #B30D7B",
"F  c #B8067B",
"G  c #C5024D",
"H  c #C50254",
"J  c #C4035D",
"K  c #CB035E",
"L  c #CA0355",
"P  c #C4026D",
"I  c #C50B6A",
"U  c #C50561",
"Y  c #C30473",
"T  c #CA0273",
"R  c #C20974",
"E  c #C90B74",
"W  c #C4037C",
"Q  c #CB027C",
"!  c #C70A7D",
"~  c #D50177",
"^  c #3E0383",
"/  c #3B04AC",
"(  c #3D02BC",
")  c #3C04B4",
"_  c #480387",
"`  c #420399",
"'  c #590297",
"]  c #540184",
"[  c #6C0284",
"{  c #6D028B",
"}  c #65038D",
"|  c #7A0383",
" . c #77028A",
".. c #6B0193",
"X. c #6B019C",
"o. c #64049A",
"O. c #730193",
"+. c #74039B",
"@. c #7F069D",
"#. c #4D05AF",
"$. c #4104AB",
"%. c #5B03A3",
"&. c #5205AD",
"*. c #5B04AD",
"=. c #5405A7",
"-. c #4304B4",
";. c #4A04B2",
":. c #4202BC",
">. c #4C03BB",
",. c #5303B5",
"<. c #5A03B5",
"1. c #5504BD",
"2. c #5E05BD",
"3. c #6C01A3",
"4. c #6503AE",
"5. c #6B02AB",
"6. c #6503A3",
"7. c #7302A4",
"8. c #7B02A4",
"9. c #7603AC",
"0. c #7D04AA",
"q. c #6303B4",
"w. c #6B06BA",
"e. c #6606B7",
"r. c #7505B7",
"t. c #3C02C0",
"y. c #4703C1",
"u. c #4C03C1",
"i. c #5004C0",
"p. c #6C03CA",
"a. c #7C01C4",
"s. c #7501CB",
"d. c #7B02C9",
"f. c #83048C",
"g. c #890585",
"h. c #930684",
"j. c #9B0583",
"k. c #9E0882",
"l. c #9A0B8B",
"z. c #8C0594",
"x. c #89039A",
"c. c #8A0795",
"v. c #930594",
"b. c #9A0A93",
"n. c #92069B",
"m. c #9D049C",
"M. c #950999",
"N. c #9D0A97",
"B. c #A30684",
"V. c #A30984",
"C. c #AB0C82",
"Z. c #AC0588",
"A. c #A4098B",
"S. c #AB098C",
"D. c #A0078F",
"F. c #BB0583",
"G. c #B30B82",
"H. c #BA0A84",
"J. c #B30A8C",
"K. c #BC098D",
"L. c #B7068A",
"P. c #A30993",
"I. c #AD0A95",
"U. c #A4049D",
"Y. c #AC059D",
"T. c #A50A9C",
"R. c #AD0A9C",
"E. c #A90694",
"W. c #B30A94",
"Q. c #BB0B93",
"!. c #B4059A",
"~. c #BA059C",
"^. c #B40B9C",
"/. c #BC0B9D",
"(. c #B50593",
"). c #AB109E",
"_. c #8D09A4",
"`. c #8304AC",
"'. c #8B05AB",
"]. c #8C0BAC",
"[. c #8906A8",
"{. c #9404A5",
"}. c #9B04A5",
"|. c #9409A5",
" X c #9A0AA3",
".X c #9708A9",
"XX c #8405B2",
"oX c #8609B5",
"OX c #8A0BB2",
"+X c #8B03B4",
"@X c #9904B2",
"#X c #A404A2",
"$X c #AD04A3",
"%X c #A40EA5",
"&X c #AB09A4",
"*X c #A707A9",
"=X c #B304A2",
"-X c #B408A5",
";X c #B403AC",
":X c #BB06A6",
">X c #AC03BD",
",X c #A402BB",
"<X c #B304BA",
"1X c #BD05BB",
"2X c #B804B5",
"3X c #A810A3",
"4X c #CB0383",
"5X c #C30984",
"6X c #C90C84",
"7X c #C4048B",
"8X c #CD028B",
"9X c #C40A8A",
"0X c #C90C89",
"qX c #D30284",
"wX c #D80284",
"eX c #C60495",
"rX c #C60994",
"tX c #D20699",
"yX c #C303A9",
"uX c #D209AD",
"iX c #D206A6",
"pX c #CC04B4",
"aX c #C505B8",
"sX c #8C02C3",
"dX c #8403C7",
"fX c #9804C5",
"gX c #AD04C0",
"hX c #A004C2",
"jX c None",
/* pixels */
"jXjXjXjXjXjXjXjXjXjXjXjXjXjXjXjXjXjXjXjXjXjXjXjXjXjXjXjXjXjXjXjX+ X X.jXjXjXjXjXjXjXjXjXjXjXjXjXjXjXjXjXjXjXjXjXjXjXjXjXjXjXjXjX",
"jXjXjXjXjXjXjXjXjXjXjXjXjXjXjXjXjXjXjXjXjXjXjXjXj.f # + + o o X X.X 4.,.jXjXjXjXjXjXjXjXjXjXjXjXjXjXjXjXjXjXjXjXjXjXjXjXjXjXjXjX",
"jXjXjXjXjXjXjXjXjXjXjXjXjXjXjXjXjXjXjXjXjXjXjXjX+ O O o X X X +.^ ^ 3./ ,.jXjXjXjXjXjXjXjXjXjXjXjXjXjXjXjXjXjXjXjXjXjXjXjXjXjXjX",
"jXjXjXjXjXjXjXjXjXjXjXjXjXjXjXjXjXjXjXjXjXjXjX .[ O O O ] ] _ 3.^ ^ ^ e.:.,.jXjXjXjXjXjXjXjXjXjXjXjXjXjXjXjXjXjXjXjXjXjXjXjXjXjX",
"jXjXjXjXjXjXjXjXjXjXjXjXjXjXjXjXjXjXjXjXjXjXjX .{ [ [ [ } ' ' 9.` ` 9.w.) ( 5.jXjXjXjXjXjXjXjXjXjXjXjXjXjXjXjXjXjXjXjXjXjXjXjXjX",
"jXjXjXjXjXjXjXjXjXjXjXjXjXjXjXjXjXjXjXjXjXjX_. .{ [ [ [ } %.%.s.r.s./ $.p.t.t.jXjXjXjXjXjXjXjXjXjXjXjXjXjXjXjXjXjXjXjXjXjXjXjXjX",
"jXjXjXjXjXjXjXjXjXjXjXjXjXjXjXjXjXjXjXjXjXjX+.+.O.{ ......a.a.-.-.) -.) p.t.:.y.jXjXjXjXjXjXjXjXjXjXjXjXjXjXjXjXjXjXjXjXjXjXjXjX",
"jXjXjXjXjXjXjXjXjXjXjXjXjXjXjXjXjXjXjXjXjX{.`.+.+.....X.6.s.s.( -.-.-.) -.p.:.:.<.jXjXjXjXjXjXjXjXjXjXjXjXjXjXjXjXjXjXjXjXjXjXjX",
"jXjXjXjXjXjXjXjXjXjXjXjXjXjXjXjXjXjXjXjXjXXX8.7.X.X.X.X.<.p.s.( ( -.-.-.;.s.3.>.1.9.jXjXjXjXjXjXjXjXjXjXjXjXjXjXjXjXjXjXjXjXjXjX",
"jXjXjXjXjXjXjXjXjXjXjXjXjXjXjXjXjXjXjXjX.X`.0.7.X.X.6.6.d.y.y.t.-.-.-.-.;.,.d.>.,.<.jXjXjXjXjXjXjXjXjXjXjXjXjXjXjXjXjXjXjXjXjXjX",
"jXjXjXjXjXjXjXjXjXjXjXjXjXjXjXjXjXjXjXjX+XXX0.7.7.3.7.5.dXy.y.y.-.-.;.#.&.<.dX8.q.4.9.jXjXjXjXjXjXjXjXjXjXjXjXjXjXjXjXjXjXjXjXjX",
"jXjXjXjXjXjXjXjXjXjXjXjXjXjXjXjXjXjXjXjX+XXX0.7.X.7.3.5.d.y.y.t.-.-.;.#.&.<.dX8.<.4.9.jXjXjXjXjXjXjXjXjXjXjXjXjXjXjXjXjXjXjXjXjX",
"jXjXjXjXjXjXjXjXjXjXjXjXjXjXjXjXjXjXjX@XoXXX0.7.7.7.9.sX1.i.u.y.-.-.;.&.*.*.e.dXq.5.`.jXjXjXjXjXjXjXjXjXjXjXjXjXjXjXjXjXjXjXjXjX",
"jXjXjXjXjXjXjXjXjXjXjXjXjXjXjXjXjXjXjXoXoXXX`.8.8.7.8.sX1.i.i.y.;.;.;.&.%.4.4.4.dX9.`.jXjXjXjXjXjXjXjXjXjXjXjXjXjXjXjXjXjXjXjXjX",
"jXjXjXjXjXjXjXjXjXjXjXjXjXjXjXjXjXjXjXoXoXoX`.0.7.0.,XsXe.i.i.i.>.#.&.=.%.6.6.6.+Xx.'.jXjXjXjXjXjXjXjXjXjXjXjXjXjXjXjXjXjXjXjXjX",
"jXjXjXjXjXjXjXjXjXjXjXjXjXjXjXjXjXjXjXoXoXXX`.0.8.,X!.>Xr.i.e.i.,.&.=.' o.o.X.X.+.,X{.!.jXjXjXjXjXjXjXjXjXjXjXjXjXjXjXjXjXjXjXjX",
"jXjXjXjXjXjXjXjXjXjXjXjXjXjXjXjXjXjXjXOXOXOX`.`.`.>X#XU.hXw.w.e.<.*.6.' o...O. . .;Xm.!.jXjXjXjXjXjXjXjXjXjXjXjXjXjXjXjXjXjXjXjX",
"jXjXjXjXjXjXjXjXjXjXjXjXjXjXjXjXjXjXjX].].].`.`.`.1X*X}.(.fXfXr.e.4.6.} [ [  .| #Xm.;XY.jXjXjXjXjXjXjXjXjXjXjXjXjXjXjXjXjXjXjXjX",
"jXjXjXjXjXjXjXjXjXjXjXjXjXjXjXjXjXjXjX|.].'.'.'.>X$X*X#XE.gXgXr.0.0.X.[ # # # | U.n.v.v.jXjXjXjXjXjXjXjXjXjXjXjXjXjXjXjXjXjXjXjX",
"jXjXjXjXjXjXjXjXjXjXjXjXjXjXjXjXjXjXjX X|.'.{.'.<X*X*XT.P.Z.Z.gX].].@.| @ $ $ $ Y.[.c.v.jXjXjXjXjXjXjXjXjXjXjXjXjXjXjXjXjXjXjXjX",
"jXjXjXjXjXjXjXjXjXjXjXjXjXjXjXjXjXjXjXm.m.}.}.<X:X*X*XT.D.B.B.F ,X]._.g.@ @ @ f =Xx.f.z.jXjXjXjXjXjXjXjXjXjXjXjXjXjXjXjXjXjXjXjX",
"jXjXjXjXjXjXjXjXjXjXjXjXjXjXjXjXjXjXjXB./.yX#X2X-X*X&XT.D.j.j.k 2X|._.c.f @ @ U.U.x.f.z.jXjXjXjXjXjXjXjXjXjXjXjXjXjXjXjXjXjXjXjX",
"jXjXjXjXjXjXjXjXjXjXjXjXjXjXjXjXjXjXjXB j Z.yXaXgX-X&XI.A.j k.k N <XM.c.f @ f U.{.x.f.jXjXjXjXjXjXjXjXjXjXjXjXjXjXjXjXjXjXjXjXjX",
"jXjXjXjXjXjXjXjXjXjXjXjXjXjXjXjXjXjXjXB j Z.E.$XaX&XR.I.A.V.j k s N <X_.g.@ $ #X{.x.f.jXjXjXjXjXjXjXjXjXjXjXjXjXjXjXjXjXjXjXjXjX",
"jXjXjXjXjXjXjXjXjXjXjXjXjXjXjXjXjXjXjXjXj k.A.#XaX&X-XI.S.V.V.j h g 2XM.g.$ f $X{.x.c.jXjXjXjXjXjXjXjXjXjXjXjXjXjXjXjXjXjXjXjXjX",
"jXjXjXjXjXjXjXjXjXjXjXjXjXjXjXjXjXjXjXjXk j A.T.1X-X^.^.S.A.A.j j h h.;Xv.g.U.#X|.x.z.jXjXjXjXjXjXjXjXjXjXjXjXjXjXjXjXjXjXjXjXjX",
"jXjXjXjXjXjXjXjXjXjXjXjXjXjXjXjXjXjXjXjXj j V.T.1X:X/.^.J.S.S.A.l.h.h.l.;Xg.#X#X|.x.M.jXjXjXjXjXjXjXjXjXjXjXjXjXjXjXjXjXjXjXjXjX",
"jXjXjXjXjXjXjXjXjXjXjXjXjXjXjXjXjXjXjXjXk.N N A.1X:X/.Q.Q.J.J.S.A.b.b.P.(.;X;X.X|.n.M.jXjXjXjXjXjXjXjXjXjXjXjXjXjXjXjXjXjXjXjXjX",
"jXjXjXjXjXjXjXjXjXjXjXjXjXjXjXjXjXjXjXjXC.N N A.).pX/.rXQ.Q.K.J.I.E.T.U.Y.:X:X}..XM.M.jXjXjXjXjXjXjXjXjXjXjXjXjXjXjXjXjXjXjXjXjX",
"jXjXjXjXjXjXjXjXjXjXjXjXjXjXjXjXjXjXjXjXJ.N N C.^.pX/.rX9XK.K.Q.W.W.Y.&X$XpXY.*X XM.jXjXjXjXjXjXjXjXjXjXjXjXjXjXjXjXjXjXjXjXjXjX",
"jXjXjXjXjXjXjXjXjXjXjXjXjXjXjXjXjXjXjXjXJ.B M N J.uXrX0X0XK.9XJ.J.(.Y.!.=XpX&X%X XM.jXjXjXjXjXjXjXjXjXjXjXjXjXjXjXjXjXjXjXjXjXjX",
"jXjXjXjXjXjXjXjXjXjXjXjXjXjXjXjXjXjXjXjXjXC.M M J.uXrX0X6X5X6XG.J.W.(.~.~.pXR.%XN.b.jXjXjXjXjXjXjXjXjXjXjXjXjXjXjXjXjXjXjXjXjXjX",
"jXjXjXjXjXjXjXjXjXjXjXjXjXjXjXjXjXjXjXjXjXC.M M K.uX0X0X6XH.5XK.L.J.!.~.~.pXY.%X%Xb.jXjXjXjXjXjXjXjXjXjXjXjXjXjXjXjXjXjXjXjXjXjX",
"jXjXjXjXjXjXjXjXjXjXjXjXjXjXjXjXjXjXjXjXjXC.M M G.uX0X6X! ! ! D G.L.L.L.L.uX^.%XN.b.jXjXjXjXjXjXjXjXjXjXjXjXjXjXjXjXjXjXjXjXjXjX",
"jXjXjXjXjXjXjXjXjXjXjXjXjXjXjXjXjXjXjXjXjXJ.D Z A uX6X! E W W F F G.F.F.F.iX^.R.P.l.jXjXjXjXjXjXjXjXjXjXjXjXjXjXjXjXjXjXjXjXjXjX",
"jXjXjXjXjXjXjXjXjXjXjXjXjXjXjXjXjXjXjXjXjXJ.D Z A tX! E E n I A A F F C W tXW.).A.l.jXjXjXjXjXjXjXjXjXjXjXjXjXjXjXjXjXjXjXjXjXjX",
"jXjXjXjXjXjXjXjXjXjXjXjXjXjXjXjXjXjXjXjXjXJ.D Z n tXE I I n n c b b A m 8XK.Q.I.V.l.jXjXjXjXjXjXjXjXjXjXjXjXjXjXjXjXjXjXjXjXjXjX",
"jXjXjXjXjXjXjXjXjXjXjXjXjXjXjXjXjXjXjXjXjXG.C.Z n tXI I J a a c b b m m 8XH.Q.J.j h.jXjXjXjXjXjXjXjXjXjXjXjXjXjXjXjXjXjXjXjXjXjX",
"jXjXjXjXjXjXjXjXjXjXjXjXjXjXjXjXjXjXjXjXjXQ.D Z n n 0XU a a a r i z c z 8XS K.G.k jXjXjXjXjXjXjXjXjXjXjXjXjXjXjXjXjXjXjXjXjXjXjX",
"jXjXjXjXjXjXjXjXjXjXjXjXjXjXjXjXjXjXjXjXjXb.G.Z n c ! 9 y 6 5 e w r r i 8XW 5XB s jXjXjXjXjXjXjXjXjXjXjXjXjXjXjXjXjXjXjXjXjXjXjX",
"jXjXjXjXjXjXjXjXjXjXjXjXjXjXjXjXjXjXjXjXjXb.G.Z b a ! 7 7 5 5 1 5 w w r 4XP F.B s jXjXjXjXjXjXjXjXjXjXjXjXjXjXjXjXjXjXjXjXjXjXjX",
"jXjXjXjXjXjXjXjXjXjXjXjXjXjXjXjXjXjXjXjXjXA.H.M c a F 7 7 , , , , w w S 4Xx S l . jXjXjXjXjXjXjXjXjXjXjXjXjXjXjXjXjXjXjXjXjXjXjX",
"jXjXjXjXjXjXjXjXjXjXjXjXjXjXjXjXjXjXjXjXjXjXH.D c H.7 C > > > : , 1 F w W p C d . jXjXjXjXjXjXjXjXjXjXjXjXjXjXjXjXjXjXjXjXjXjXjX",
"jXjXjXjXjXjXjXjXjXjXjXjXjXjXjXjXjXjXjXjXjXjXl.rXc F 4 A > : : : , V , , W m C d . jXjXjXjXjXjXjXjXjXjXjXjXjXjXjXjXjXjXjXjXjXjXjX",
"jXjXjXjXjXjXjXjXjXjXjXjXjXjXjXjXjXjXjXjXjXjXC.rX7Xw 4 4 l : : : V < , 1 W r v d jXjXjXjXjXjXjXjXjXjXjXjXjXjXjXjXjXjXjXjXjXjXjXjX",
"jXjXjXjXjXjXjXjXjXjXjXjXjXjXjXjXjXjXjXjXjXjXC.rX7Xr 5 > v : : : V < < w W l V d jXjXjXjXjXjXjXjXjXjXjXjXjXjXjXjXjXjXjXjXjXjXjXjX",
"jXjXjXjXjXjXjXjXjXjXjXjXjXjXjXjXjXjXjXjXjXjXM C.7Xr 5 5 > V V V < 1 1 t y qXeXl jXjXjXjXjXjXjXjXjXjXjXjXjXjXjXjXjXjXjXjXjXjXjXjX",
"jXjXjXjXjXjXjXjXjXjXjXjXjXjXjXjXjXjXjXjXjXjXjXM 7Xi e 5 , v V , , 1 1 r y qXv jXjXjXjXjXjXjXjXjXjXjXjXjXjXjXjXjXjXjXjXjXjXjXjXjX",
"jXjXjXjXjXjXjXjXjXjXjXjXjXjXjXjXjXjXjXjXjXjXjXv 7Xi e 6 5 , 5 F w t r i i qXF jXjXjXjXjXjXjXjXjXjXjXjXjXjXjXjXjXjXjXjXjXjXjXjXjX",
"jXjXjXjXjXjXjXjXjXjXjXjXjXjXjXjXjXjXjXjXjXjXjXb eXi y e 6 w 5 W r r i i J qXz jXjXjXjXjXjXjXjXjXjXjXjXjXjXjXjXjXjXjXjXjXjXjXjXjX",
"jXjXjXjXjXjXjXjXjXjXjXjXjXjXjXjXjXjXjXjXjXjXjXz eXi y y 6 e e W i i p U J K jXjXjXjXjXjXjXjXjXjXjXjXjXjXjXjXjXjXjXjXjXjXjXjXjXjX",
"jXjXjXjXjXjXjXjXjXjXjXjXjXjXjXjXjXjXjXjXjXjXjXjXz W y y 9 y y 4Xp p U J wXC jXjXjXjXjXjXjXjXjXjXjXjXjXjXjXjXjXjXjXjXjXjXjXjXjXjX",
"jXjXjXjXjXjXjXjXjXjXjXjXjXjXjXjXjXjXjXjXjXjXjXjXi Q 9 9 9 y u Q p p J U wXc jXjXjXjXjXjXjXjXjXjXjXjXjXjXjXjXjXjXjXjXjXjXjXjXjXjX",
"jXjXjXjXjXjXjXjXjXjXjXjXjXjXjXjXjXjXjXjXjXjXjXjXi Q 9 6 9 y y Q p p J K wXn jXjXjXjXjXjXjXjXjXjXjXjXjXjXjXjXjXjXjXjXjXjXjXjXjXjX",
"jXjXjXjXjXjXjXjXjXjXjXjXjXjXjXjXjXjXjXjXjXjXjXjXy Q 8 8 9 9 y Q H u K K K jXjXjXjXjXjXjXjXjXjXjXjXjXjXjXjXjXjXjXjXjXjXjXjXjXjXjX",
"jXjXjXjXjXjXjXjXjXjXjXjXjXjXjXjXjXjXjXjXjXjXjXjXq Q 8 8 8 0 0 Q u u L L U jXjXjXjXjXjXjXjXjXjXjXjXjXjXjXjXjXjXjXjXjXjXjXjXjXjXjX",
"jXjXjXjXjXjXjXjXjXjXjXjXjXjXjXjXjXjXjXjXjXjXjXjXjXz * = * 9 0 T 0 0 G ~ m jXjXjXjXjXjXjXjXjXjXjXjXjXjXjXjXjXjXjXjXjXjXjXjXjXjXjX",
"jXjXjXjXjXjXjXjXjXjXjXjXjXjXjXjXjXjXjXjXjXjXjXjXjXu P * * 8 8 T 0 0 H ~ H jXjXjXjXjXjXjXjXjXjXjXjXjXjXjXjXjXjXjXjXjXjXjXjXjXjXjX",
"jXjXjXjXjXjXjXjXjXjXjXjXjXjXjXjXjXjXjXjXjXjXjXjXjXq P & * 8 8 T 0 q G L jXjXjXjXjXjXjXjXjXjXjXjXjXjXjXjXjXjXjXjXjXjXjXjXjXjXjXjX",
"jXjXjXjXjXjXjXjXjXjXjXjXjXjXjXjXjXjXjXjXjXjXjXjXjXjX7 & & 8 8 P T T ~ x jXjXjXjXjXjXjXjXjXjXjXjXjXjXjXjXjXjXjXjXjXjXjXjXjXjXjXjX",
"jXjXjXjXjXjXjXjXjXjXjXjXjXjXjXjXjXjXjXjXjXjXjXjXjXjXjX% & P P 8 * G ~ J jXjXjXjXjXjXjXjXjXjXjXjXjXjXjXjXjXjXjXjXjXjXjXjXjXjXjXjX",
"jXjXjXjXjXjXjXjXjXjXjXjXjXjXjXjXjXjXjXjXjXjXjXjXjXjXjXz % P P * = = G jXjXjXjXjXjXjXjXjXjXjXjXjXjXjXjXjXjXjXjXjXjXjXjXjXjXjXjXjX",
"jXjXjXjXjXjXjXjXjXjXjXjXjXjXjXjXjXjXjXjXjXjXjXjXjXjXjXjXjX* * * - - H jXjXjXjXjXjXjXjXjXjXjXjXjXjXjXjXjXjXjXjXjXjXjXjXjXjXjXjXjX",
"jXjXjXjXjXjXjXjXjXjXjXjXjXjXjXjXjXjXjXjXjXjXjXjXjXjXjXjXjXjXjX- ; ; jXjXjXjXjXjXjXjXjXjXjXjXjXjXjXjXjXjXjXjXjXjXjXjXjXjXjXjXjXjX"
};
