/* XPM */
static char *result[] = {
/* columns rows colors chars-per-pixel */
"64 64 185 2 ",
"   c #010101",
".  c #060608",
"X  c #0A080C",
"o  c #08080A",
"O  c #0D0D12",
"+  c #100F17",
"@  c #100F18",
"#  c #0F1013",
"$  c #121215",
"%  c #14131B",
"&  c #18141F",
"*  c #17181C",
"=  c #1A1A1E",
"-  c #171622",
";  c #1A1623",
":  c #1B1B24",
">  c #1D1B29",
",  c #241B2D",
"<  c #241629",
"1  c #2B1B32",
"2  c #231F30",
"3  c #301C36",
"4  c #3A1E3F",
"5  c #331D39",
"6  c #1F2227",
"7  c #222325",
"8  c #23242A",
"9  c #27282D",
"0  c #292A2F",
"q  c #252335",
"w  c #2A2335",
"e  c #2A2B33",
"r  c #2A253A",
"t  c #2D2A3D",
"y  c #272438",
"u  c #342333",
"i  c #30273E",
"p  c #3F2232",
"a  c #2E3138",
"s  c #2F3037",
"d  c #32333C",
"f  c #38383C",
"g  c #442232",
"h  c #4C2231",
"j  c #522431",
"k  c #5E2130",
"l  c #542930",
"z  c #6B232F",
"x  c #72232E",
"c  c #7C2C2D",
"v  c #642130",
"b  c #2F2940",
"n  c #342B45",
"m  c #3A2947",
"M  c #372E49",
"N  c #3D2B4C",
"B  c #332741",
"V  c #353444",
"C  c #353A43",
"Z  c #3A3C44",
"A  c #3C314F",
"S  c #3C3C4D",
"D  c #373648",
"F  c #3F3251",
"G  c #3E3E50",
"H  c #422A4D",
"J  c #442D52",
"K  c #4A2C56",
"L  c #542D5C",
"P  c #413354",
"I  c #403F50",
"U  c #4B325A",
"Y  c #483157",
"T  c #52315E",
"R  c #5D2F64",
"E  c #553462",
"W  c #5A3466",
"Q  c #5C3669",
"!  c #62336B",
"~  c #6A3370",
"^  c #6A3875",
"/  c #73397C",
"(  c #3F414A",
")  c #41434D",
"_  c #4B4B4D",
"`  c #444554",
"'  c #464953",
"]  c #4A4C54",
"[  c #47475A",
"{  c #494A5A",
"}  c #4F535E",
"|  c #515256",
" . c #55565A",
".. c #5D5D5E",
"X. c #4E4E62",
"o. c #535563",
"O. c #565965",
"+. c #5A5C67",
"@. c #5B5D6B",
"#. c #565868",
"$. c #5C5E72",
"%. c #5F6167",
"&. c #5E616E",
"*. c #5E6171",
"=. c #63666D",
"-. c #69696A",
";. c #606062",
":. c #626473",
">. c #666976",
",. c #6B6C72",
"<. c #64667A",
"1. c #666C7B",
"2. c #696B7C",
"3. c #6D717C",
"4. c #73757A",
"5. c #76797F",
"6. c #737374",
"7. c #8B232D",
"8. c #95252B",
"9. c #83302B",
"0. c #AC222B",
"q. c #A0202B",
"w. c #B3282A",
"e. c #A23429",
"r. c #C33327",
"t. c #D03C24",
"y. c #793A80",
"u. c #6C6E83",
"i. c #6D7180",
"p. c #707281",
"a. c #767983",
"s. c #767A8B",
"d. c #797D8E",
"f. c #727489",
"g. c #7E828A",
"h. c #7E8194",
"j. c #818182",
"k. c #838688",
"l. c #85888F",
"z. c #89898A",
"x. c #818594",
"c. c #898C91",
"v. c #83869B",
"b. c #8A8D9B",
"n. c #868A9D",
"m. c #989899",
"M. c #8B8FA1",
"N. c #8D91A4",
"B. c #9497A4",
"V. c #9297AC",
"C. c #959AAD",
"Z. c #989DB3",
"A. c #9CA1B6",
"S. c #9EA3BA",
"D. c #A7ABB5",
"F. c #A9ADB6",
"G. c #A2A7BF",
"H. c #A5A9B7",
"J. c #AEB2BE",
"K. c #B3B3B4",
"L. c #A5ABC1",
"P. c #A8AEC4",
"I. c #ADB2C1",
"U. c #B6BBC4",
"Y. c #BABEC9",
"T. c #B4B9C8",
"R. c #B6BCD1",
"E. c #BABFD3",
"W. c #BBC0CB",
"Q. c #BDC3D6",
"!. c #C5C5C5",
"~. c #C1C7DA",
"^. c #C6CBDB",
"/. c #C7CDDA",
"(. c #CDD2DC",
"). c #CFD0D1",
"_. c #DCDDDF",
"`. c #D5D5D5",
"'. c #CCD2E1",
"]. c #D1D7E4",
"[. c #D5DBE5",
"{. c #DAE0EA",
"}. c #E1E1E1",
"|. c #EFEFF0",
" X c white",
/* pixels */
"                                                                                                                                ",
"                                                                                                                                ",
"                                                                                                                                ",
". . . . . . .                                                                                                     . . . . . . . ",
". . . . . . . .                                                                                                   . . . . . . . ",
"$ 7 7 7 = $ .                                                                                                   . . # = 7 7 7 * ",
"_ j.z.z.6.Z o .                                                                                                   . f -.z.k.z.| ",
"j.}.|.|.!.-.o .                                                                                                 . .  .K.|.|.|.m.",
"z.|. X X`.,.o .                                                                                                   . ..!. X X Xm.",
"z.|. X X`.,.o                                                                                                   . . ..!. X X Xm.",
"6.).}._.K.-.. .                                                                                                   . | D._.}._.j.",
"_ k.c.c.6.Z . .                                                                                                   o f -.z.c.z. .",
"6 C C C a : .                                                                                                   . . * e Z C ( 6 ",
"Z *.1.1.O.a . .                                                                                                   . 9 } 1.1.1.( ",
"O.V.A.A.v.' X                                                                                                   . . ( s.A.A.A.*.",
">.T.Q.Q.A.#.O O                                                                                               . o X ' V.Q.Q.Q.a.",
"3.Q.(.'.I.>.: @ X .   . .   . .   . . .   . .   .   .                       . . . . . . .   .   . .   .   .   . @ - #.H.^.'.'.g.",
"5.(.{.{.W.i.y - O X X X X X X X X X X X X X X X X X . .                 . . o X X X X X X X X X X X X X X X X O - 2 :.J.{.{.{.x.",
"5.(.{.{.W.i.q q , , 5 B 4 4 4 4 4 4 4 4 4 4 4 4 3 , ; O   .           . X ; , 1 4 4 4 4 p 4 4 4 4 4 4 4 4 5 1 , , q :.J.{.{.{.l.",
"5.(.{.{.W.i.q r n J E ! ~ ~ ~ ~ ~ ~ ~ ~ ~ ~ ~ ~ E J t & .             . % w H T ! ~ ~ ~ ~ ~ ~ ~ ~ ~ ~ ~ ~ W K n b q :.I.{.{.{.l.",
"5.(.{.{.W.p.y n P Q ^ y.y.y.y.y.y.y.y.y.y.y.y.y.^ W N < . .           . ; m E W ! ! ! ! ! ! ! ! ! ! ! R ! Q E U m r :.J.{.{.{.l.",
"5.(.{.{.W.p.y H E ^ y.y.y.y.y.y.y.y.y.y.y.y.y.y./ ^ L 1 .             . < L ! T H N N H H N N N H N N N H K Q Q J w :.J.{.{.{.l.",
"5.(.{.{.W.p.y H ^ y.^ y.^ y.y.y./ / / / / / / / / / R 3 .           . . < L ~ K w w 1 3 u u u u 3 u u w 2 m R ^ K y :.J.{.{.{.l.",
"5.(.{.{.W.4.y M U Q Q Q Q Q Q Q Q Q Q Q Q Q Q Q Q Q K < . .           . ; H E N q g k x c 9.9.9.9.x z h u n U E N q :.J.{.{.{.l.",
"5.(.{.{.W.p.y B F P P U Y P U U Y Y P P P Y Y U U P M > . .         . . ; B J n y j 7.0.r.t.t.t.r.w.q.z w b N F n q :.J.{.{.{.l.",
"5.(.{.{.W.p.y t N F F P P P F F P P P P F P F P G F n > .               & t A b q g x 7.8.e.e.e.e.0.0.x u t M F n y :.J.{.{.{.l.",
"5.(.{.{.W.3.q b F F P F P F F P F P P P F P P F P F n ; . .           . ; b F b q w p h l l l l z 8.0.x 3 i N F B y :.J.{.{.{.l.",
"5.(.{.{.W.p.y t M F F P F P P F P P P P P F P P F A B ; .           . . & t M B r r r r y y y q g x 8.v u r n M b q :.J.{.{.{.l.",
"5.(.{.{.W.p.q y b n M F F F F F F P P F P P P F N n y - .           .   @ 2 B n n n n M n n t y 3 h k g q y t n r q :.J.{.{.{.l.",
"5.(.{.{.Y.p.q q q t M F P P F F F P F F P F P F M r > % X             . + > r n F F F F F F n r w w w w 2 q q 2 q q :.J.{.{.{.l.",
"5.(.{.{.W.p.y q q y b n M M M M M M n M M n M n b y > @ . .         . . O > q r n n M n M n r r 2 q q 2 2 q q 2 q q :.I.{.{.{.l.",
"5.(.{.{.W.p.y q q q r r r r r r r r r r r r r r y q > % .             . O > q r r r r r r r q q q q q q q q q q q q :.J.{.{.{.l.",
"a.(.{.{.W.i.r b G [ ' { { { { { { { { { { { { { [ ` C > .           . . ; V ` ` { { { { ' { { { ' { { { { ' ` S V q :.J.[.{.{.l.",
"5.(.{.{.W.i.y [ u.x.b.B.B.B.B.B.B.B.B.B.B.B.B.B.n.x.>.d . .             e @.h.n.B.B.B.B.B.B.B.B.B.B.B.B.B.M.v.f.X.r =.J.{.{.{.l.",
"5.(.{.{.W.p.q @.V.R./.[.[.[.[.[.[.[.[.[.[.[.[.[.^.E.N.' . .           . S h.R.~.].[.[.[.[.[.[.[.[.[.[.[.].(.Q.S.<.t :.J.{.{.{.l.",
"5.(.{.{.Y.,.; C #.u.a.a.l.b.b.b.b.b.b.b.b.b.b.b.x.d.$.d .           . . e #.d.x.b.b.b.b.b.b.b.b.b.b.b.x.g.a.3.%.S > +.J.{.{.{.l.",
"5.(.{.{.U.=.O % : 7 7 9 d S S G I I I I ( I I G G A t : .             . * t D S S G ` S I G I I I I S d 0 7 8 , % O  .F.{.{.{.l.",
"5.(.{.{.U.%.. . . . . . O > e S { { { D y > > > > > - O .             . O % > > > > > q D [ X.{ I t > % o .   . . . | D.{.{.{.l.",
"5.(.{.{.U.%.X   .       . # d *.v.v.v.*.a $ O % O O O .                 . X @ @ O % O q #.M.v.v.2.Z + o .     .   . | D.{.{.{.l.",
"5.(.{.{.U.%.. .         X $ Z s.L.L.L.f.t . . . . . . .                   . . . . . . 8 :.L.L.L.x.' $ X         . . | F.{.{.{.l.",
"5.(.{.{.U.%.. .     . . e } &.&.*.&.&.) = .       .                         .   .   . $ Z =.&.&.&.&.O.d #         . | D.[.{.{.l.",
"5.(.{.{.U.%.X         O } N.h.) * = * # .                                             . X * * * C p.Z.O.* .       . | D.{.{.{.l.",
"5.(.{.{.W.=.$ X . O 9 ( +.s.+.e . .   .                                                 . .   . 7 o.d.&.' 0 $ . X O  .F.{.{.{.l.",
"5.(.{.{.W.2.> % X 6 O.h.*.) 9 $                                                                 # 8 S +.g.&.e . % > &.J.{.{.{.l.",
"a.(.{.{.W.4.r 6 6 C p.C.+.= .                                                                     . # ] N.s.) : 8 q >.J.{.{.{.l.",
"5.(.{.{.W.3.y G +.:.+.o.a O                                                                         X e { +.:.&.` r :.J.{.{.{.l.",
"5.(.{.{.Y.p.q $.V.n.] X .                                                                             . O Z h.Z.<.t :.J.{.{.{.l.",
"5.(.{.{.W.p.q $.Z.N.' . .                                                                               . Z h.L.<.t :.I.{.{.{.l.",
"5.(.[.{.W.p.y *.Z.N.' .                                                                               . . C x.G.2.t :.J.{.{.{.l.",
"5.(.{.{.W.p.y X.h.f.Z .                                                                                 . a 2.n.#.t :.J.{.{.{.l.",
"a.(.{.{.W.p.q C ' Z 6                                                                                   . * C ' D r *.J.{.{.{.l.",
"5.(.{.{.W.3.y - X .                                                                                           X * 2 :.J.{.{.{.l.",
"5.(.{.{.W.3.y - O .                                                                                         . . - 2 :.J.{.{.{.l.",
"5.(.{.{.W.p.y - X .                                                                                         . X * 2 :.J.{.{.{.l.",
"4./.].].T.2.> % X .                                                                                         . X @ > +.D.].].].g.",
"1.T.~.~.H.#.% X .                                                                                               O O } C.~.~.~.s.",
"&.S.P.P.N.] X                                                                                                     . ( x.P.P.P.1.",
"f +.:.:.o.e . .                                                                                                   . 9 ] :.:.:.Z ",
"# - = = * # . .                                                                                                 . . O % = = : $ ",
". . . . . . .                                                                                                     . . . . . . . ",
"                                                                                                                                ",
"                                                                                                                                ",
"                                                                                                                                ",
"                                                                                                                                "
};
