/* XPM */
static char *result[] = {
/* columns rows colors chars-per-pixel */
"64 64 127 2 ",
"   c #000000",
".  c #080706",
"X  c #0A0807",
"o  c #060708",
"O  c #0C0708",
"+  c #070809",
"@  c #0B0A0B",
"#  c #130B0D",
"$  c #12100F",
"%  c #1A130C",
"&  c #0E0F12",
"*  c #160E10",
"=  c #190F11",
"-  c #0F1113",
";  c #121214",
":  c #1C1214",
">  c #14151B",
",  c #16181C",
"<  c #1A1A1C",
"1  c #231414",
"2  c #281613",
"3  c #251B13",
"4  c #291E14",
"5  c #261419",
"6  c #321C1A",
"7  c #2E2115",
"8  c #322317",
"9  c #37231D",
"0  c #39291A",
"q  c #171921",
"w  c #1A1D24",
"e  c #1B1E29",
"r  c #201F24",
"t  c #1E2125",
"y  c #1E222A",
"u  c #202126",
"i  c #22252C",
"p  c #26292A",
"a  c #2B2C2D",
"s  c #212631",
"d  c #252A33",
"f  c #2A2C33",
"g  c #292F38",
"h  c #2F3035",
"j  c #2D333E",
"k  c #343431",
"l  c #32333B",
"z  c #383B3C",
"x  c #42241F",
"c  c #463318",
"v  c #4E3818",
"b  c #442F22",
"n  c #4F3922",
"m  c #543C24",
"M  c #2D3643",
"N  c #2F3848",
"B  c #363B46",
"V  c #3B3D46",
"C  c #333D4C",
"Z  c #3E3F49",
"A  c #3D4042",
"S  c #3E454D",
"D  c #364150",
"F  c #394353",
"G  c #3B4658",
"H  c #3D485B",
"J  c #414446",
"K  c #42434D",
"L  c #454849",
"P  c #484B4D",
"I  c #534F4D",
"U  c #454651",
"Y  c #454A54",
"T  c #494C54",
"R  c #404B5C",
"E  c #4C4E5B",
"W  c #4D5254",
"Q  c #4C525C",
"!  c #545050",
"~  c #5C5856",
"^  c #52565A",
"/  c #515A5F",
"(  c #5C5D5F",
")  c #615A5C",
"_  c #444E60",
"`  c #475163",
"'  c #4B5364",
"]  c #4F5869",
"[  c #525663",
"{  c #545A63",
"}  c #545B6C",
"|  c #5A5D6C",
" . c #5D5F70",
".. c #605F60",
"X. c #5B6165",
"o. c #566069",
"O. c #5A6369",
"+. c #5F696F",
"@. c #5F6170",
"#. c #646B6D",
"$. c #75716E",
"%. c #626474",
"&. c #616C74",
"*. c #6A6F74",
"=. c #636678",
"-. c #666979",
";. c #686B7C",
":. c #6B7175",
">. c #667079",
",. c #6B747D",
"<. c #747170",
"1. c #737A7C",
"2. c #797A7E",
"3. c #855F2A",
"4. c #85602A",
"5. c #707582",
"6. c #757A86",
"7. c #7B7C80",
"8. c #7A8186",
"9. c #7E858A",
"0. c #858487",
"q. c #83868A",
"w. c #838B8D",
"e. c #858D92",
"r. c #8D8E93",
"t. c #879093",
"y. c #8A9296",
/* pixels */
"                                                    + O O O +                                                                   ",
"                                                  ; -.-.;.y.t.O                                                                 ",
"                                                ; -.;.y.;.;.;.t.+                                                               ",
"                                              & R ;.;.,.y.;.;.>.t.@                                                             ",
"                                              - G _ ;.%.@ @ X @ @ o                                                             ",
"                                              @ H H G * + o X O . . . .                                                         ",
"                                              o s C * @  .%.9.q.O.q.%.@                                                         ",
"                                              . o & & F ;.-.> ;.; ;.<                                                           ",
"                                              @ ! q & H %.; | ; | ;.@                                                           ",
"                                          ; 2.2.2.+ q ; R . -.o -.,                                                             ",
"                                        $ ~ $.y.r.2.1.+ G C -.  ;.@                                                             ",
"                                        . ; ; < < < :   #.H _ { ;.#                                                             ",
"                                        - +.+.o.d d d d , ) - ` ;.@                                                             ",
"                                      ; { t S A > h - - > : ! - < O.o                                                           ",
"                                      + t d M j d j d i @ o 0.! + S O.+                                                         ",
"                                      - Q + @ & @ ; j y , @ y.0.I l U o                                                         ",
"                                      + p i s i i > ; e q o <.<.0.; j .                                                         ",
"                                      > / j j M M g q @ O   < 5 p   g .                                                         ",
"                                      < ,.M j j l g w     = = o E #., .                                                         ",
"                                      , ,.l M j M g w o Y o 5 = u t.+                                                           ",
"                                      , ,.j j j M g w o -.U O 5 = a .                                                           ",
"                                      + j o.j j M e & Y ;.-.U O 5 0 . W +                                                       ",
"                                        & Q o.j s q O ;.;.;.-.U b 9   Y +                                                       ",
"                                        o < h , & & O ;.;.;.;.;.) b   i o       ^ ( X.X.,                                       ",
"                                        + y y > ; @ j ;.;.;.;.-.;.$.. @     ^ L ,.6.6.6.%.( ,                                   ",
"                                          ; , d w + H ] ;.-.a f f z . V K + ;.;.;.;.;.;.6.6.X.:                                 ",
"                                        & S w > q o H G f f # # v # . ` ;.K l @.B  .;.;.;.;.6.| <                               ",
"                                      @ Y T j w - o G e # # = 6 4.1   F -.l + a = f  .;.;.;.-.6.E ;                             ",
"                                      , ,.j j g - o w # : % 6 x 3.# T i h * # * * l @.;.;.;.;.;.;.w                             ",
"                                      - Q j j i & o # : : 6 x x 3.. 6.@ + : # # l %.;.;.;.;.;.;.[ f +                           ",
"                                      o w j y > y o : : 6 x x 9 4.. -.+ : * i o | ;.;.Z  .;.;.[ B l ;                           ",
"                                        o > > B D   # # 2 2 1 2 c 7 l * #   D d l @.Z : f Y E B M M ;                           ",
"                                          @ T =.C   = = = * * * 7 7 # # l * y G ; l : # , g M j j M ;                           ",
"                                          , y.=.F o 2 5 5 5 5 2 m   # l %.U > y :   # > g M j j j l ;                           ",
"                                          , e.=.C   * * * * = = 8 4 l -.Z Z >   # # # f l j j M j i @                           ",
"                                          @ / @.F + J l l . 1 1 2 7 z V * * o     1 = g M j j l j -                             ",
"                                            & } S & 6.5.-.f 2 x b     # * # @ O   # , g j j j M i +                             ",
"                                            @ H C @ -.;.;.-.  x x   f * o   # # ; , g M j M f y @                               ",
"                                            o g s @ =.U ;.-.  6 2 w } h . ; , , j j j j j f > o                                 ",
"                                              @ O o K 3 U [   =   G H -.+ g j j j j j M g q o                                   ",
"                                      o . %   1 1   3 0 f e @ # O M H } f y j j j M j g > o                                     ",
"                                      & k 7 + : 1 O n & U . # @ e e G H -.@ h j M d d , o                                       ",
"                                @ O O 3 2.. : 5 5 3 0 q y u o > > e N H } f y d d e > o                                         ",
"                      . O O @ # : : # < 8.r = = 1 m @ d F C t t e > q M H | d > > > o                                           ",
"                    . O = # : # # # ; A 8. .u u 3 0 @ < s d M F C i w w j M Y +                                                 ",
"                      . o . . o . . u e.;.;.-.[ 0 . . f ; ; ; d d M F F - > > + o o                                             ",
"                                    r e.;.-.[ h +   o e w w e ; * @ i i y F H y p i @   .                                       ",
"                                    , #.Q Y i y       > q > > > q     o w M M M @.;.l f k @ o                                   ",
"                                  + t < t r <               .       O @ O.> & @ Y Q [ 8.e.A a k @ .                             ",
"                                  < &.&.>.>.o..                       t q d g d o     U [ :.q.y.P a a ;                         ",
"                                + w e y j h y                     . o o.p q , o       + @ @ L ;.1.q.y.P $                       ",
"                                t &.e j j i                       + q - X.i .               + @ + K :.1.h @                     ",
"                              o t { f y i                         q y H + O.@                     + @ @ o                       ",
"                            o w C p o.i                         . w G _ @                                                       ",
"                            ; H ' [ , /                           w G -.@                                                       ",
"                            > ` ;.{   .                         o w R } +                                                       ",
"                            , ` 5.1.                              w -.+                                                         ",
"                            > ` ,.#.                              w @.+                                                         ",
"                            > ] :..                               d s ;                                                         ",
"                            ; ] #.                              @ 9.q.w.@                                                       ",
"                            @ s w X                             w.+     .                                                       ",
"                            a t.t.:..                             # : ;                                                         ",
"                          p #.o     .                               * * :                                                       ",
"                            o * ; * #   .                                                                                       "
};
