/* XPM */
static char *result[] = {
/* columns rows colors chars-per-pixel */
"64 64 189 2 ",
"   c #050403",
".  c #080706",
"X  c #0C0905",
"o  c #070709",
"O  c #0C0B0C",
"+  c #130C0D",
"@  c #0D0E12",
"#  c #100F10",
"$  c #1A0F11",
"%  c #0F1013",
"&  c #141314",
"*  c #1D1214",
"=  c #131519",
"-  c #171A1E",
";  c #1A1A1D",
":  c #1F1719",
">  c #211316",
",  c #25161A",
"<  c #29161B",
"1  c #21191B",
"2  c #2D1B1E",
"3  c #291D12",
"4  c #321F1F",
"5  c #36201C",
"6  c #3B221E",
"7  c #3A2A1D",
"8  c #1C1D22",
"9  c #1D1F29",
"0  c #2A1C21",
"q  c #341C23",
"w  c #1E2125",
"e  c #1E212A",
"r  c #232425",
"t  c #22252B",
"y  c #26292C",
"u  c #2A2B2D",
"i  c #28272C",
"p  c #3B2027",
"a  c #332A28",
"s  c #3E3023",
"d  c #232531",
"f  c #252A36",
"g  c #292D33",
"h  c #272B3A",
"j  c #282D3B",
"k  c #2D3134",
"l  c #2E333D",
"z  c #323335",
"x  c #32343A",
"c  c #393C3F",
"v  c #402E1C",
"b  c #47331F",
"n  c #4E2C29",
"m  c #502D29",
"M  c #4A3521",
"N  c #4E3824",
"B  c #573B2A",
"V  c #673931",
"C  c #59412A",
"Z  c #6E5026",
"A  c #6B4A35",
"S  c #7B5836",
"D  c #7A5726",
"F  c #2D3343",
"G  c #313743",
"H  c #333A45",
"J  c #3B3D43",
"K  c #343B4A",
"L  c #3A3F4A",
"P  c #3B414E",
"I  c #3D4143",
"U  c #3C4554",
"Y  c #434445",
"T  c #42434D",
"R  c #47494B",
"E  c #4A4C4E",
"W  c #52514D",
"Q  c #444652",
"!  c #424A56",
"~  c #494B56",
"^  c #444D5C",
"/  c #4D4E59",
"(  c #4D535C",
")  c #52525D",
"_  c #575C5E",
"`  c #414D61",
"'  c #465162",
"]  c #485262",
"[  c #49556B",
"{  c #465469",
"}  c #565B6A",
"|  c #4C5B72",
" . c #5E606F",
".. c #5B636B",
"X. c #54657E",
"o. c #5F6B79",
"O. c #666B6E",
"+. c #636474",
"@. c #6A6C7D",
"#. c #616D79",
"$. c #6C7173",
"%. c #717679",
"&. c #845E39",
"*. c #837C7A",
"=. c #D19641",
"-. c #576780",
";. c #576882",
":. c #596A84",
">. c #5B6E8A",
",. c #5E718E",
"<. c #6C6E81",
"1. c #6D7383",
"2. c #63738E",
"3. c #707284",
"4. c #757B87",
"5. c #627491",
"6. c #6A7A96",
"7. c #6E7E9A",
"8. c #7B7E92",
"9. c #747E95",
"0. c #74828C",
"q. c #7F8D96",
"w. c #7E849B",
"e. c #748499",
"r. c #7D8CA6",
"t. c #7684A0",
"y. c #80888A",
"u. c #80878D",
"i. c #908A87",
"p. c #81859B",
"a. c #85889A",
"s. c #988D90",
"d. c #8D9698",
"f. c #86929A",
"g. c #949599",
"h. c #8C8FA6",
"j. c #828DA8",
"k. c #878AA0",
"l. c #8796A4",
"z. c #8B94A4",
"x. c #8B9AA4",
"c. c #8992AE",
"v. c #8791AD",
"b. c #9296AE",
"n. c #939BA1",
"m. c #969AB2",
"M. c #999DB6",
"N. c #989BB5",
"B. c #93A3AC",
"V. c #9FA9AC",
"C. c #9CA5AA",
"Z. c #99A9B6",
"A. c #9DA2BC",
"S. c #97A8B5",
"D. c #9FB0BD",
"F. c #A0AAAD",
"G. c #B5AFAE",
"H. c #A1A4BF",
"J. c #A6AEBA",
"K. c #A9B3B8",
"L. c #B6B1B0",
"P. c #BAB4AA",
"I. c #A3A7C2",
"U. c #A6AAC4",
"Y. c #AAAFC7",
"T. c #A5B7C4",
"R. c #ADB4C6",
"E. c #B1BCC1",
"W. c #BDBEC5",
"Q. c #B0B7CB",
"!. c #B5BDCC",
"~. c #B5BCD0",
"^. c #B7C1C5",
"/. c #B9C1D3",
"(. c #BFCAD2",
"). c #C1C1C7",
"_. c #C3CCDA",
"`. c #D0CED3",
"'. c #C7D3D7",
"]. c #CDDADD",
"[. c #C8D3DB",
"{. c #D1D0D5",
"}. c #CEDAE3",
"|. c #D1DDE4",
" X c #DBDCE4",
".X c #D4E1E5",
"XX c #D6E3E9",
"oX c #DCE3EA",
"OX c None",
/* pixels */
"OXOXOXOXOXOXOXOXOXOXOXOXOXOXOXOXOXOXOXOXOXOXOXOXOXOXO + O O O OXOXOXOXOXOXOXOXOXOXOXOXOXOXOXOXOXOXOXOXOXOXOXOXOXOXOXOXOXOXOXOXOX",
"OXOXOXOXOXOXOXOXOXOXOXOXOXOXOXOXOXOXOXOXOXOXOXOXOX; H.H.I.XX.XO OXOXOXOXOXOXOXOXOXOXOXOXOXOXOXOXOXOXOXOXOXOXOXOXOXOXOXOXOXOXOXOX",
"OXOXOXOXOXOXOXOXOXOXOXOXOXOXOXOXOXOXOXOXOXOXOXOX; A.U.XXI.U.U..X& OXOXOXOXOXOXOXOXOXOXOXOXOXOXOXOXOXOXOXOXOXOXOXOXOXOXOXOXOXOXOX",
"OXOXOXOXOXOXOXOXOXOXOXOXOXOXOXOXOXOXOXOXOXOXOX; 2.I.U.Y.XXI.U.U.|.& OXOXOXOXOXOXOXOXOXOXOXOXOXOXOXOXOXOXOXOXOXOXOXOXOXOXOXOXOXOX",
"OXOXOXOXOXOXOXOXOXOXOXOXOXOXOXOXOXOXOXOXOXOXOX; 2.6.I.N.& + + + &   OXOXOXOXOXOXOXOXOXOXOXOXOXOXOXOXOXOXOXOXOXOXOXOXOXOXOXOXOXOX",
"OXOXOXOXOXOXOXOXOXOXOXOXOXOXOXOXOXOXOXOXOXOXOX& ,.,.2.- O O O O O O + O OXOXOXOXOXOXOXOXOXOXOXOXOXOXOXOXOXOXOXOXOXOXOXOXOXOXOXOX",
"OXOXOXOXOXOXOXOXOXOXOXOXOXOXOXOXOXOXOXOXOXOXOXO K ;.= & b.m.'.'.m.'.m.& OXOXOXOXOXOXOXOXOXOXOXOXOXOXOXOXOXOXOXOXOXOXOXOXOXOXOXOX",
"OXOXOXOXOXOXOXOXOXOXOXOXOXOXOXOXOXOXOXOXOXOXOX  o - & ;.I.H.r Y.; J.i OXOXOXOXOXOXOXOXOXOXOXOXOXOXOXOXOXOXOXOXOXOXOXOXOXOXOXOXOX",
"OXOXOXOXOXOXOXOXOXOXOXOXOXOXOXOXOXOXOXOXOXOX  + *.d = 5.M.8 h.; h.I.& OXOXOXOXOXOXOXOXOXOXOXOXOXOXOXOXOXOXOXOXOXOXOXOXOXOXOXOXOX",
"OXOXOXOXOXOXOXOXOXOXOXOXOXOXOXOXOXOXOXOXOXr ^.).^.@ d 0 5.o I.  I.i OXOXOXOXOXOXOXOXOXOXOXOXOXOXOXOXOXOXOXOXOXOXOXOXOXOXOXOXOXOX",
"OXOXOXOXOXOXOXOXOXOXOXOXOXOXOXOXOXOXOXOX1 i.L.oX XW.E.O 2.X.A.  H.& OXOXOXOXOXOXOXOXOXOXOXOXOXOXOXOXOXOXOXOXOXOXOXOXOXOXOXOXOXOX",
"OXOXOXOXOXOXOXOXOXOXOXOXOXOXOXOXOXOXOXOX. ; r y i i r O g.>.6.k.H.& OXOXOXOXOXOXOXOXOXOXOXOXOXOXOXOXOXOXOXOXOXOXOXOXOXOXOXOXOXOX",
"OXOXOXOXOXOXOXOXOXOXOXOXOXOXOXOXOXOXOXOXw B.B.l.U P U K r g.- 6.I.& OXOXOXOXOXOXOXOXOXOXOXOXOXOXOXOXOXOXOXOXOXOXOXOXOXOXOXOXOXOX",
"OXOXOXOXOXOXOXOXOXOXOXOXOXOXOXOXOXOXOXt q.l o...r ^ ; ; d r *.8 i n.O OXOXOXOXOXOXOXOXOXOXOXOXOXOXOXOXOXOXOXOXOXOXOXOXOXOXOXOXOX",
"OXOXOXOXOXOXOXOXOXOXOXOXOXOXOXOXOXOXOXo k P ] ' U ] P P = o `.*.O o.x.% OXOXOXOXOXOXOXOXOXOXOXOXOXOXOXOXOXOXOXOXOXOXOXOXOXOXOXOX",
"OXOXOXOXOXOXOXOXOXOXOXOXOXOXOXOXOXOXOX- 0.= = % & - ] F 0 $ oX`.*.] <.O OXOXOXOXOXOXOXOXOXOXOXOXOXOXOXOXOXOXOXOXOXOXOXOXOXOXOXOX",
"OXOXOXOXOXOXOXOXOXOXOXOXOXOXOXOXOXOXOXO J K K P H 9 9 F f o G.G.`.w ^ O OXOXOXOXOXOXOXOXOXOXOXOXOXOXOXOXOXOXOXOXOXOXOXOXOXOXOXOX",
"OXOXOXOXOXOXOXOXOXOXOXOXOXOXOXOXOXOXOXr q.] ] ^ ' Q 0 = @   z a C   ^ O OXOXOXOXOXOXOXOXOXOXOXOXOXOXOXOXOXOXOXOXOXOXOXOXOXOXOXOX",
"OXOXOXOXOXOXOXOXOXOXOXOXOXOXOXOXOXOXOXy T.] ] ] ' ` h     0 <   6.B.r   OXOXOXOXOXOXOXOXOXOXOXOXOXOXOXOXOXOXOXOXOXOXOXOXOXOXOXOX",
"OXOXOXOXOXOXOXOXOXOXOXOXOXOXOXOXOXOXOXt T.] ] ] ' ^ h o <.O q < x XX#   OXOXOXOXOXOXOXOXOXOXOXOXOXOXOXOXOXOXOXOXOXOXOXOXOXOXOXOX",
"OXOXOXOXOXOXOXOXOXOXOXOXOXOXOXOXOXOXOXt T.] ] ] ] ' d o H.<.+ p < R .   OXOXOXOXOXOXOXOXOXOXOXOXOXOXOXOXOXOXOXOXOXOXOXOXOXOXOXOX",
"OXOXOXOXOXOXOXOXOXOXOXOXOXOXOXOXOXOXOXOX( l.] ] ` G 8 3.I.I.@.+ p B . 0.& OXOXOXOXOXOXOXOXOXOXOXOXOXOXOXOXOXOXOXOXOXOXOXOXOXOXOX",
"OXOXOXOXOXOXOXOXOXOXOXOXOXOXOXOXOXOXOXOX= 0.l.^ K d # I.I.I.H.@.A B   1.O OXOXOX        OXOXOXOXOXOXOXOXOXOXOXOXOXOXOXOXOXOXOXOX",
"OXOXOXOXOXOXOXOXOXOXOXOXOXOXOXOXOXOXOXOXo g E t - - O I.I.I.I.I.s.A   G O OX    y.d.d.d.u . OXOXOXOXOXOXOXOXOXOXOXOXOXOXOXOXOXOX",
"OXOXOXOXOXOXOXOXOXOXOXOXOXOXOXOXOXOXOXOXo G l e w % U U.U.I.I.I.I.P.O &     y.@.R.~./.~.n.g.z OXOXOXOXOXOXOXOXOXOXOXOXOXOXOXOXOX",
"OXOXOXOXOXOXOXOXOXOXOXOXOXOXOXOXOXOXOXOXo w e U f % 5.r.U.H.P T P _ o  .+.@ J.U.U.H.U.I.~./.n.z OXOXOXOXOXOXOXOXOXOXOXOXOXOXOXOX",
"OXOXOXOXOXOXOXOXOXOXOXOXOXOXOXOXOXOXOXOXw o.k e f o ,.,.T T & * D &   9.I.@./ N.} b.I.I.I.I.~.g.c OXOXOXOXOXOXOXOXOXOXOXOXOXOXOX",
"OXOXOXOXOXOXOXOXOXOXOXOXOXOXOXOXOXOXOXw %.9.^ f 8 O >.h $ $ 2 n =.5 . :.A.) O P 2 T b.I.I.I.I.~.4.i OXOXOXOXOXOXOXOXOXOXOXOXOXOX",
"OXOXOXOXOXOXOXOXOXOXOXOXOXOXOXOXOXOXOXt T.] ] ^ 8 o j * 2 2 n V =.* 4.H ~ * : > $ ] M.I.I.I.I.I.U.x OXOXOXOXOXOXOXOXOXOXOXOXOXOX",
"OXOXOXOXOXOXOXOXOXOXOXOXOXOXOXOXOXOXOX- 0.] ^ K 8 o * 2 2 n V V =.X !.# + 0 > * ) N.U.I.I.I.I.I.w.U = OXOXOXOXOXOXOXOXOXOXOXOXOX",
"OXOXOXOXOXOXOXOXOXOXOXOXOXOXOXOXOXOXOX% k ' H e F   2 q n V V V =.X M.# 0 $ H O h.I.I.+.c.I.U.w.} ] ; OXOXOXOXOXOXOXOXOXOXOXOXOX",
"OXOXOXOXOXOXOXOXOXOXOXOXOXOXOXOXOXOXOXOX% e e } -.  & * 5 6 6 6 Z b ) , >   X.U ( m.+.0 Q 1.9.} ] ] 8 OXOXOXOXOXOXOXOXOXOXOXOXOX",
"OXOXOXOXOXOXOXOXOXOXOXOXOXOXOXOXOXOXOXOXOX& 4.M.X.  , < , * < < b b > $ ) 8 G ;.8 ~ 0 > t ! ] ] ] ] ; OXOXOXOXOXOXOXOXOXOXOXOXOX",
"OXOXOXOXOXOXOXOXOXOXOXOXOXOXOXOXOXOXOXOXOXr XXA.X.  p q q n q q &.. $ ~ M.<.9 F 0   & i ^ ` ] ] ] ] 8 OXOXOXOXOXOXOXOXOXOXOXOXOX",
"OXOXOXOXOXOXOXOXOXOXOXOXOXOXOXOXOXOXOXOXOXr |.M.X.  < < < < < < N v / H.+.+.d . $ $ $ Q ' ] ] ] ] G = OXOXOXOXOXOXOXOXOXOXOXOXOX",
"OXOXOXOXOXOXOXOXOXOXOXOXOXOXOXOXOXOXOXOXOXw q.A.X.O $.] / o 4 4 5 b } +.1 * o     q < ! ] ] ] ] ] ; OXOXOXOXOXOXOXOXOXOXOXOXOXOX",
"OXOXOXOXOXOXOXOXOXOXOXOXOXOXOXOXOXOXOXOXOXOX= r.X.& _.I.H.Q v V V     * * $ $ +   * t ! ] ] ] ] H = OXOXOXOXOXOXOXOXOXOXOXOXOXOX",
"OXOXOXOXOXOXOXOXOXOXOXOXOXOXOXOXOXOXOXOXOX  @ ,.X.# I.I.I.A.  V V   T : O   > * w t ! ] ] ] U G = OXOXOXOXOXOXOXOXOXOXOXOXOXOXOX",
"OXOXOXOXOXOXOXOXOXOXOXOXOXOXOXOXOXOXOXOXOX  o U K % A.@.I.A.  m 6 f j.~ O 8 8 t ^ ] ] ] ] U d O OXOXOXOXOXOXOXOXOXOXOXOXOXOXOXOX",
"OXOXOXOXOXOXOXOXOXOXOXOXOXOXOXOXOXOXOXOXOX    $ # O +.s @.8.  2   >.,.A.@ ! ] ] ] ] ] ] U d @ OXOXOXOXOXOXOXOXOXOXOXOXOXOXOXOXOX",
"OXOXOXOXOXOXOXOXOXOXOXOXOXOXOXOXOXOXOXOXX 3   p p   7 C P l + & @ [ ,.v.Q x ^ ] ] ] ] U d O OXOXOXOXOXOXOXOXOXOXOXOXOXOXOXOXOXOX",
"OXOXOXOXOXOXOXOXOXOXOXOXOXOXOXOXOXOX. & W N O 2 p X S & %.X * @ h j >.,.A.# ^ ] ] U U d O OXOXOXOXOXOXOXOXOXOXOXOXOXOXOXOXOXOXOX",
"OXOXOXOXOXOXOXOXOXOXOXOXOXOX  . + + O u ^.. 0 p p 7 C i F l O t t h | >.v.T F U U F e O OXOXOXOXOXOXOXOXOXOXOXOXOXOXOXOXOXOXOXOX",
"OXOXOXOXOXOXOXOXOXOXOXX + + + $ 2 2 > u _.x < < p S & P ;.X.l l j d d { ,.v.P e e e O OXOXOXOXOXOXOXOXOXOXOXOXOXOXOXOXOXOXOXOXOX",
"OXOXOXOXOXOXOXOXOXOXX O , , , 1 1 * : O._.b.x z 7 C # i L L [ ;.;.l l l ^ ` 1.@     OXOXOXOXOXOXOXOXOXOXOXOXOXOXOXOXOXOXOXOXOXOX",
"OXOXOXOXOXOXOXOXOX  . O X O O + O O k |.H.H.H.a.B O O U 8 8 8 P P [ ;.;.8 9 e o OXOXOXOXOXOXOXOXOXOXOXOXOXOXOXOXOXOXOXOXOXOXOXOX",
"OXOXOXOXOXOXOXOXOXOXOX      OXOXOXOXz |.I.H.p.! O   o h h j j 8 8 & G K K :.,.G J L OXOXOXOXOXOXOXOXOXOXOXOXOXOXOXOXOXOXOXOXOXOX",
"OXOXOXOXOXOXOXOXOXOXOXOXOXOXOXOXOXOXr C.8.1.K G   OXo d e e t e t       k { { { N.I./ R E OXOXOXOXOXOXOXOXOXOXOXOXOXOXOXOXOXOXOX",
"OXOXOXOXOXOXOXOXOXOXOXOXOXOXOXOXOX@ k k k k y . OXOX      .         O & x.e = = @.8.w.(.}.O.R R OXOXOXOXOXOXOXOXOXOXOXOXOXOXOXOX",
"OXOXOXOXOXOXOXOXOXOXOXOXOXOXOXOXOXt S.Z.D.J.l.. OXOXOXOXOXOXOXOXOXOX  k f U U P O     1.p.J.[.oX$.Y R OXOXOXOXOXOXOXOXOXOXOXOXOX",
"OXOXOXOXOXOXOXOXOXOXOXOXOXOXOXOX@ k j K ] ] H   OXOXOXOXOXOXOXOXOX  o x.J d t o OXOXOX: & = 1.K.E.[.oX%.OXOXOXOXOXOXOXOXOXOXOXOX",
"OXOXOXOXOXOXOXOXOXOXOXOXOXOXOXOXk Z.F ^ ^ H   OXOXOXOXOXOXOXOXOXOXO h - x.c O OXOXOXOXOXOXOX* & : @.J.^._ = OXOXOXOXOXOXOXOXOXOX",
"OXOXOXOXOXOXOXOXOXOXOXOXOXOXOXO l f.U F H   OXOXOXOXOXOXOXOXOXOX  j K >.O x.- OXOXOXOXOXOXOXOXOXOX& : & OXOXOXOXOXOXOXOXOXOXOXOX",
"OXOXOXOXOXOXOXOXOXOXOXOXOXOXOXf | J x.H . OXOXOXOXOXOXOXOXOXOXOX  j >.6.O   OXOXOXOXOXOXOXOXOXOXOXOXOXOXOXOXOXOXOXOXOXOXOXOXOXOX",
"OXOXOXOXOXOXOXOXOXOXOXOXOXOXe 2.e.w.t f.  OXOXOXOXOXOXOXOXOXOXOX  h >.A.& OXOXOXOXOXOXOXOXOXOXOXOXOXOXOXOXOXOXOXOXOXOXOXOXOXOXOX",
"OXOXOXOXOXOXOXOXOXOXOXOXOXOXe 7.U.a..   OXOXOXOXOXOXOXOXOXOXOXOX  h 5.v.& OXOXOXOXOXOXOXOXOXOXOXOXOXOXOXOXOXOXOXOXOXOXOXOXOXOXOX",
"OXOXOXOXOXOXOXOXOXOXOXOXOXOXe 7.Q.K.X OXOXOXOXOXOXOXOXOXOXOXOXOX  h A.@ OXOXOXOXOXOXOXOXOXOXOXOXOXOXOXOXOXOXOXOXOXOXOXOXOXOXOXOX",
"OXOXOXOXOXOXOXOXOXOXOXOXOXOXe e.Q.F.  OXOXOXOXOXOXOXOXOXOXOXOXOX  h b.O OXOXOXOXOXOXOXOXOXOXOXOXOXOXOXOXOXOXOXOXOXOXOXOXOXOXOXOX",
"OXOXOXOXOXOXOXOXOXOXOXOXOXOXw r.K.  OXOXOXOXOXOXOXOXOXOXOXOXOXOX  K L : OXOXOXOXOXOXOXOXOXOXOXOXOXOXOXOXOXOXOXOXOXOXOXOXOXOXOXOX",
"OXOXOXOXOXOXOXOXOXOXOXOXOXOXw t.F.  OXOXOXOXOXOXOXOXOXOXOXOXOXOX& '.].].& OXOXOXOXOXOXOXOXOXOXOXOXOXOXOXOXOXOXOXOXOXOXOXOXOXOXOX",
"OXOXOXOXOXOXOXOXOXOXOXOXOXOX& H h # OXOXOXOXOXOXOXOXOXOXOXOXOX  ].O       OXOXOXOXOXOXOXOXOXOXOXOXOXOXOXOXOXOXOXOXOXOXOXOXOXOXOX",
"OXOXOXOXOXOXOXOXOXOXOXOXOXOXT .X.XK.  OXOXOXOXOXOXOXOXOXOXOXOXOX  : 1 1     OXOXOXOXOXOXOXOXOXOXOXOXOXOXOXOXOXOXOXOXOXOXOXOXOXOX",
"OXOXOXOXOXOXOXOXOXOXOXOXOXI V.    .     OXOXOXOXOXOXOXOXOXOXOXOXOX  1 1 1     OXOXOXOXOXOXOXOXOXOXOXOXOXOXOXOXOXOXOXOXOXOXOXOXOX",
"OXOXOXOXOXOXOXOXOXOXOXOXOXOXO 1 1 1 *       OXOXOXOXOXOXOXOXOXOXOXOXOXOXOXOXOXOXOXOXOXOXOXOXOXOXOXOXOXOXOXOXOXOXOXOXOXOXOXOXOXOX"
};
