/* XPM */
static char *result[] = {
/* columns rows colors chars-per-pixel */
"64 64 209 2 ",
"   c #060608",
".  c #060A09",
"X  c #090C0C",
"o  c #08070A",
"O  c #0B120E",
"+  c #081E0E",
"@  c #07120B",
"#  c #101E0E",
"$  c #140D12",
"%  c #0C1C14",
"&  c #0D1914",
"*  c #131111",
"=  c #1A1016",
"-  c #1E1219",
";  c #1F1919",
":  c #231C1D",
">  c #09220F",
",  c #14240F",
"<  c #0A2413",
"1  c #0A2B12",
"2  c #0D2618",
"3  c #0C2D18",
"4  c #12231B",
"5  c #152C15",
"6  c #0B3514",
"7  c #0B3C16",
"8  c #0D311C",
"9  c #0D3E1B",
"0  c #1B3614",
"q  c #1D3A18",
"w  c #2C1A22",
"e  c #321D27",
"r  c #331E28",
"t  c #152D22",
"y  c #0F3C20",
"u  c #173325",
"i  c #103F22",
"p  c #1A382A",
"a  c #292126",
"s  c #332027",
"d  c #39212C",
"f  c #37212B",
"g  c #3E2331",
"h  c #4B2935",
"j  c #402431",
"k  c #423337",
"l  c #4E3939",
"z  c #5B3138",
"x  c #0E461A",
"c  c #0D4D1A",
"v  c #0B4016",
"b  c #114B1C",
"n  c #14411C",
"m  c #0E531C",
"M  c #0E591C",
"N  c #11521B",
"B  c #1A581C",
"V  c #29531B",
"C  c #2B5F1D",
"Z  c #24511A",
"A  c #2D611E",
"S  c #0F4020",
"D  c #114A24",
"F  c #194726",
"G  c #15562B",
"H  c #1C4530",
"J  c #1B5431",
"K  c #155E30",
"L  c #1D5936",
"P  c #295625",
"I  c #224C35",
"U  c #24543B",
"Y  c #225B3A",
"T  c #285B3A",
"R  c #2A5F36",
"E  c #0F6A21",
"W  c #126525",
"Q  c #126C21",
"!  c #17652C",
"~  c #117D25",
"^  c #167725",
"/  c #156431",
"(  c #1F6C37",
")  c #1F653A",
"_  c #1E6B3B",
"`  c #176831",
"'  c #1D7436",
"]  c #1C7C35",
"[  c #1C733B",
"{  c #1A7B3B",
"}  c #167A33",
"|  c #2A6726",
" . c #386D21",
".. c #237523",
"X. c #227D25",
"o. c #367A24",
"O. c #21623A",
"+. c #2B643A",
"@. c #236B3A",
"#. c #2D6B39",
"$. c #266F37",
"%. c #316D3A",
"&. c #2B7C37",
"*. c #22743D",
"=. c #2C7239",
"-. c #2B7C39",
";. c #227939",
":. c #347539",
">. c #3B7B3A",
",. c #1A8427",
"<. c #15872B",
"1. c #13932C",
"2. c #159D2F",
"3. c #1B9D2E",
"4. c #1A8434",
"5. c #178D35",
"6. c #198B33",
"7. c #198339",
"8. c #198938",
"9. c #178237",
"0. c #179332",
"q. c #1B9433",
"w. c #159A31",
"e. c #1C9C31",
"r. c #2D8B28",
"t. c #3C8227",
"y. c #378529",
"u. c #23912A",
"i. c #24992C",
"p. c #238534",
"a. c #238E34",
"s. c #2C8B35",
"d. c #238C38",
"f. c #328537",
"g. c #3D8F37",
"h. c #3C8338",
"j. c #348B38",
"k. c #2C9434",
"l. c #239C33",
"z. c #299A32",
"x. c #249233",
"c. c #3C9A36",
"v. c #369B3A",
"b. c #3D9C39",
"n. c #379338",
"m. c #14A02E",
"M. c #1BA32F",
"N. c #1CA031",
"B. c #22A62F",
"V. c #28A42F",
"C. c #23A530",
"Z. c #2CA432",
"A. c #26A930",
"S. c #2BAB30",
"D. c #31A533",
"F. c #32AC32",
"G. c #3AAC33",
"H. c #3EA439",
"J. c #3CA534",
"K. c #36B031",
"L. c #3CB332",
"P. c #45962F",
"I. c #428F38",
"U. c #449537",
"Y. c #449D36",
"T. c #489E37",
"R. c #429338",
"E. c #499B39",
"W. c #489638",
"Q. c #559A3C",
"!. c #53872B",
"~. c #44A336",
"^. c #4AA437",
"/. c #4EAC36",
"(. c #41A936",
"). c #50AF36",
"_. c #59A63B",
"`. c #43B533",
"'. c #4CB435",
"]. c #46B833",
"[. c #4CBB34",
"{. c #52B336",
"}. c #54BD35",
"|. c #58BF37",
" X c #66A53B",
".X c #65B134",
"XX c #62BB3A",
"oX c #69B63C",
"OX c #71BB37",
"+X c #57C035",
"@X c #5AC135",
"#X c #5FC238",
"$X c #63C537",
"%X c #65C538",
"&X c #6AC539",
"*X c #6DC939",
"=X c #72C53A",
"-X c #73CB3A",
";X c #7BCE3C",
":X c #7FD03D",
">X c #6FAC40",
",X c #85D23E",
"<X c #8BD43F",
"1X c #80BE41",
"2X c #8DD540",
"3X c #91D641",
"4X c #96D942",
"5X c #9CDB43",
"6X c None",
/* pixels */
"6X6X6X6X6X6X6X6X6X6X6X6X6X6X6X6X6X6X6X6X6X6X6X6X6X6X6X6X6X6X6X6X6X6X6X6X6X6X6X6X6X6X6X6X6X6X6X6X6X6X6X6X6X6X6X6X6X6X6X6X6X6X6X6X",
"6X6X6X6X6X6X6X6X6X6X6X6X6X6X6X6X6X6X6X6X6X6X6X6X6X6X6X6X6X6XX o 6X6X6X6X6X6X6X6X6X6X6X6X6X6X6X6X6X6X6X6X6X6X6X6X6X6X6X6X6X6X6X6X",
"6X6X6X6X6X6X6X6X6X6X6X6X6X6X6X6X6X6X6X6X6X6X6X6X6X6X6X6X6Xq V V 5 6X6X6X6X6X6X6X6X6X6X6X6X6X6X6X6X6X6X6X6X6X6X6X6X6X6X6X6X6X6X6X",
"6X6X6X6X6X6X6X6X6X6X6X6X6X6X6X6X6X6X6X6X6X6X6X6X6X6X6X6X,  .$X$XV , 6X6X6X6X6X6X6X6X6X6X6X6X6X6X6X6X6X6X6X6X6X6X6X6X6X6X6X6X6X6X",
"6X6X6X6X6X6X6X6X6X6X6X6X6X6X6X6X6X6X6X6X6X6X6X6X6X6X6X  o.-X5X5X&XA o 6X6X6X6X6X6X6X6X6X6X6X6X6X6X6X6X6X6X6X6X6X6X6X6X6X6X6X6X6X",
"6X6X6X6X6X6X6X6X6X6X6X6X6X6X6X6X6X6X6X6X6X6X6X6X6X6X, o.OX4X5X5X<X.X .o 6X6X6X6X6X6X6X6X6X6X6X6X6X6X6X6X6X6X6X6X6X6X6X6X6X6X6X6X",
"6X6X6X6X6X6X6X6X6X6X6X6X6X6X6X6X6X6X6X6X6X6X6X6X6X0  .=X<X5X5X5X5X<X.XC , 6X6X6X6X6X6X6X6X6X6X6X6X6X6X6X6X6X6X6X6X6X6X6X6X6X6X6X",
"6X6X6X6X6X6X6X6X6X6X6X6X6X6X6X6X6X6X6X6X6X6X1 1 < P $X4X5X5X5X5X5X5X2X|.q < 1 1 6X6X6X6X6X6X6X6X6X6X6X6X6X6X6X6X6X6X6X6X6X6X6X6X",
"6X6X6X6X6X6X6X6X6X6X6X6X6X6X6X6X6X6X6X6X. 6 m.m.' >.$X4X5X5X5X5X5X5X<X|.%.] 2.1.+ 6X6X6X6X6X6X6X6X6X6X6X6X6X6X6X6X6X6X6X6X6X6X6X",
"6X6X6X6X6X6X6X6X6X6X6X6X6X6X6X6X6X6X    c u.[.[.V.&.>.<X5X5X5X5X5X5X1X%.4.D.[.`.,.7     6X6X6X6X6X6X6X6X6X6X6X6X6X6X6X6X6X6X6X6X",
"6X6X6X6X6X6X6X6X6X6X6X6X6X6X6X6X6X> M M ! j.@X;X}.J.W.-X<X5X5X5X5X<XOXg.G.$X-X}.p.W M m @ 6X6X6X6X6X6X6X6X6X6X6X6X6X6X6X6X6X6X6X",
"6X6X6X6X6X6X6X6X6X6X6X6X6X6X6X6X1 m S.S.k.I.-X<X-X|.@X$X,X<X5X5X2X*X@X@X|.;X<X&X>.k.S.i.7 < 6X6X6X6X6X6X6X6X6X6X6X6X6X6X6X6X6X6X",
"6X6X6X6X6X6X6X6X6X6X6X6X6X6X6X  c C.+X@X@X*X4X5X-X@X@X$X@X-X<X<X*X@XXX$X@X;X4X3X$X@X+X[.N.6   6X6X6X6X6X6X6X6X6X6X6X6X6X6X6X6X6X",
"6X6X6X6X6X6X6X6X6X6X6X6X6X6X6X  i 8.N.[.@X@X%X%X@X-X<X<X*X@X*X*X@X-X3X3X$X@X$X$X@X@X].e.7.8 . 6X6X6X6X6X6X6X6X6X6X6X6X6X6X6X6X6X",
"6X6X6X6X6X6X6X6X6X6X6X6X6X6X6X6X2 D 9.Z.]./.h.{.&X2X5X5X*X@X@X@X@X;X5X5X<X*X/.h.{.`.l.} y % 6X6X6X6X6X6X6X6X6X6X6X6X6X6X6X6X6X6X",
"6X6X6X6X6X6X6X6X6X6X6X6X6X6X6X6X6X% G 1.Z.g.Y /.-X2XOXoXXX@X@X@X@XXXoX&X:X*XT.T Y.C.<.D X 6X6X6X6X6X6X6X6X6X6X6X6X6X6X6X6X6X6X6X",
"6X6X6X6X6X6X6X6X6X6X6X6X6X6X6X6X6X6XO ~ 9._ O.).}.L.0.O.T.@X*X&X@Xg.@.w.].}.^.Y [ 5.W X 6X6X6X6X6X6X6X6X6X6X6X6X6X6X6X6X6X6X6X6X",
"6X6X6X6X6X6X6X6X6X6X6X6X6X6X6X    & I [ _ _ w.}.F.p.Y 1.`.-X<X<X&XG.<.Y q.L.`.1.O.( _ H X   6X6X6X6X6X6X6X6X6X6X6X6X6X6X6X6X6X6X",
"6X6X6X6X6X6X6X6X6X6X6X6X6X6X  M ..y.4.) U =.`.S.M.4.Y w.`.$X*X*X$XK.6.U 0.B.K.L.+.Y ( 4.t.^ c   6X6X6X6X6X6X6X6X6X6X6X6X6X6X6X6X",
"6X6X6X6X6X6X6X6X6X6X6X6X6X6X  y.|.].m.[ Y $.L.M.2.4.Y w.`.@X@X@X@XK.<.U 0.2.B.J.Y Y ] M.|.}.|   6X6X6X6X6X6X6X6X6X6X6X6X6X6X6X6X",
"6X6X6X6X6X6X6X6X6X6X6X6X6X6X>  X*XL.w.{ @.' 5.1.w.{ Y 0.K.[.@X+X[.F.4.U 5.w.5.5.@._ 7.e.].;X!.> 6X6X6X6X6X6X6X6X6X6X6X6X6X6X6X6X",
"6X6X6X6X6X6X6X6X6X6X6X6X6X> 1.].L.w.{ Y ] 4.U U _ @.U { q.K.@X@XS.0._ U [ O.U Y 0.( O.7.w.].L.^ . 6X6X6X6X6X6X6X6X6X6X6X6X6X6X6X",
"6X6X6X6X6X6X6X6X6X6X6X6X7 ,.`.S.l.{ Y ] D.`.^.a.5.0.4.O.{ q.A.A.6.[ _ 6.0.5.x.^.].z.{ O.7.l.K.J.^ 1 6X6X6X6X6X6X6X6X6X6X6X6X6X6X",
"6X6X6X6X6X6X6X6X6X6X6X  9 x.F.M.7._ ] /.|.[.F.M.0.l.F.4._ [ 5.5.[ [ p.F.q.w.M.L.|.@XH.' _ 5.B.S.5.1 6X6X6X6X6X6X6X6X6X6X6X6X6X6X",
"6X6X6X6X6X6X6X6X6X6X6X6X8 ` 0.0.' @.A.-X%XK.m.5.d.H.}.S.&.( [ _ @.p.K.+Xv.a.1.N.`.-X$Xz.T ] w.4.K < 6X6X6X6X6X6X6X6X6X6X6X6X6X6X",
"6X6X6X6X6X6X6X6X6X6X6X6X6X% [ { ) #.|.@XF.m.w.O.U.@X@X+XS.] U U 5.K.@X#X}.h.( m.w.L.+X'.Y _ { / o 6X6X6X6X6X6X6X6X6X6X6X6X6X6X6X",
"6X6X6X6X6X6X6X6X6X6X6X6X6X6X< H ' q.C.C.q.8.w.Y U.*X,X#X[.F.0.0.G.}.$X<X%Xh.( 2.7.e.A.N.w.( H % 6X6X6X6X6X6X6X6X6X6X6X6X6X6X6X6X",
"6X6X6X6X6X6X6X6X6X6X6X6X6X+ M J ' m.m.0.' -.G.R U.$X-X@X`.B.2.m.S.[.$X-X@Xh.=.F.*.{ 0.m.w.( G c o 6X6X6X6X6X6X6X6X6X6X6X6X6X6X6X",
"6X6X6X6X6X6X6X6X6X6X6X6X1 b Z.f.&.5.w.[ _ f.|.+.U.@X+X`.A.m.m.m.m.S.[.@X@Xh.:.}.;.@.] 0.4.-.s.u.7 6X6X6X6X6X6X6X6X6X6X6X6X6X6X6X",
"6X6X6X6X6X6X6X6X6X6X6X  x A.@X+Xg.) [ Y 4.S.|.+.U.+X[.M.2.m.m.m.2.2.A.}.@Xh.:.|.A.' ) [ Y Y.@X[.N.6 6X6X6X6X6X6X6X6X6X6X6X6X6X6X",
"6X6X6X6X6X6X6X6X6X6X6X  Z @X<X`.2.4.Y 4.G.}.}.+.U.`.M.m.' ] m.m.' } m.B.[.h.:.@X}.Z.] Y 0.3.}.2X[.0 6X6X6X6X6X6X6X6X6X6X6X6X6X6X",
"6X6X6X6X6X6X6X6X6X6X  c r.}.[.B.0.4.4.F.$X-X{.+.s.A.m.m.( &.L.`.#.] m.2.S.&.:.@X;X|.D.4.8.w.A.[.@XX.v 6X6X6X6X6X6X6X6X6X6X6X6X6X",
"6X6X6X6X6X6X6X6X6X6X  ..K.K.2.w.7.;.S.[.-X*XL.*.' 6.2.<.&.T.@X@XI.&.6.2.4.[ -.`.:X%X[.Z.@.7.1.M.L.K.B . 6X6X6X6X6X6X6X6X6X6X6X6X",
"6X6X6X6X6X6X6X6X6X6X  o.K.m.m.7._ =.+X[.[.L.w.9._ ( 5.#.^.@X$X$X@XR.$.1.) ( 5.M.].[.[.`.@._ 8.2.m.`.A   6X6X6X6X6X6X6X6X6X6X6X6X",
"6X6X6X6X6X6X6X6X6X6X  Q m.m.m.( ' 2.M.M.M.M.m.w.4._ +./.|.-X4X4X&X|.T.T [ 5.w.m.m.M.M.M.2.( ] 2.m.m.m   6X6X6X6X6X6X6X6X6X6X6X6X",
"6X6X6X6X6X6X6X6X6X6X6X6 7 x 9.O.( 5.m.m.m.m.m.2.8.7.a.}.@X$X*X*X@X@X'.<.{ 0.m.m.m.m.m.w.7.O._ } 7 6 1 6X6X6X6X6X6X6X6X6X6X6X6X6X",
"6X6X6X6X6X6X6X6X6X6X6X6X  % S ` ( [ 0.w.m.3.5.4.[ ] m.F.L.].@X+X`.L.F.2.[ [ 4.0.2.m.w.8._ ( ! i .   6X6X6X6X6X6X6X6X6X6X6X6X6X6X",
"6X6X6X6X6X6X6X6X6X6X6X6X6X6X< ~ 4.Y [ 8.0.4.[ O.O.' 0.2.m.S.[.[.A.m.2.1.( ) ) [ 8.0.4._ L 6.Q < 6X6X6X6X6X6X6X6X6X6X6X6X6X6X6X6X",
"6X6X6X6X6X6X6X6X6X6X6X6X6X> 1.2.5._ U U U U U 1.2.4.Y 2.m.m.m.m.m.m.6.U 5.2.4.U U U U Y { 0.w.~ . 6X6X6X6X6X6X6X6X6X6X6X6X6X6X6X",
"6X6X6X6X6X6X6X6X6X6X6X6X8 ` 2.5.[ @.5.b.^.^.^.].V.4.T 2.m.m.m.m.m.m.6.U 0.S.'.^.^.^.v.7.O.[ 0.1.K < 6X6X6X6X6X6X6X6X6X6X6X6X6X6X",
"6X6X6X6X6X6X6X6X6X6X6X  8 @.' _ [ p.K.}.*X*X+X+XF.5._ ' w.2.2.m.m.6.' _ w.G.@X@X;X%X].F.4.@.( [ ) < 6X6X6X6X6X6X6X6X6X6X6X6X6X6X",
"6X6X6X6X6X6X6X6X6X6X6X1 F #.@.O.' z.@X@X-X:X+X[.A.0.[ _ ] 6.6.6.6.} _ { w.F.[.@X,X*X|.}.6._ O.@.:.n < 6X6X6X6X6X6X6X6X6X6X6X6X6X",
"6X6X6X6X6X6X6X6X6X6X  E F.'.N.7.) %.@X+X+X@X}.M.m.0.{ w.$.U U U U ;.q.{ w.2.S.+X+X|.@X{.T *.5.C.}.C.m   6X6X6X6X6X6X6X6X6X6X6X6X",
"6X6X6X6X6X6X6X6X6X6X  o.Y.$.7.H.h.#.@X@X@X[.M.M.m.8.+.`.'./.)././.'.H.Y 1.m.m.A.}.@X@X).R R.v.{ +.^.C   6X6X6X6X6X6X6X6X6X6X6X6X",
"6X6X6X6X6X6X6X6X6X6Xo | -.T b.*XQ.+.v.D.S.S.M.m.0.[ O.D.].*X:X:X$X].k.U { q.2.m.S.F.D.n.Y  XXXn.U f.F . 6X6X6X6X6X6X6X6X6X6X6X6X",
"6X6X6X6X6X6X6X6X6X6X  i L +.}.&XE.( _ 8.2.w.0.6.8.' Y 5.F.@X,X,X|.Z.4.U ] 8.8.w.2.2.7.( _ _.$X/.U J 8 6X6X6X6X6X6X6X6X6X6X6X6X6X",
"6X6X6X6X6X6X6X6X6X6X6Xo 4 R [.A.w.5.Y [ 7.5.[ ) 4.p.L *.5.F.+X+XB.8._ Y q.;.O.' 0.9._ ) w.w.S.^.U % 6X6X6X6X6X6X6X6X6X6X6X6X6X6X",
"6X6X6X6X6X6X6X6X6X6X6X6X6X2 e.m.0.9.1.) Y Y L 6.G.L.5.Y [ 0.M.M.8._ _ 1.].Z.4.Y Y Y ( 0.7.0.M.<.O 6X6X6X6X6X6X6X6X6X6X6X6X6X6X6X",
"6X6X6X6X6X6X6X6X6X6X6X6X6X6X7 v G =.`.Y._. Xb.N.s.g.G.6.( [ 8.7._ [ a.L.h.a.C.E. X_.~.J.@.D 7 7 6X6X6X6X6X6X6X6X6X6X6X6X6X6X6X6X",
"6X6X6X6X6X6X6X6X6X6X6X6X6X6X    4 P @X@X*X-X@XM.' =.H.F.p.@._ _ ( a.G.H.+.] A.@X;X$X@X).p & o 6X6X6X6X6X6X6X6X6X6X6X6X6X6X6X6X6X",
"6X6X6X6X6X6X6X6X6X6X6X6X6X6X6X6X6X5 '.{.{.[.[.N.[ ) ;.'.S.a.+.+.x.K.(.*.O.4.A.[.}.'.{.P.# 6X6X6X6X6X6X6X6X6X6X6X6X6X6X6X6X6X6X6X",
"6X6X6X6X6X6X6X6X6X6X6X6X6X6X6X6X6X& T *.q.N.M.m.9._ O.e.`.|.{.}.}.K.q.U _ 5.m.M.M.6.*.I X 6X6X6X6X6X6X6X6X6X6X6X6X6X6X6X6X6X6X6X",
"6X6X6X6X6X6X6X6X6X6X6X6X6X6X6X6X6X6X% 2 K 5.m.m.w.] Y 7.l.L.@X@XK.l.[ U 4.w.m.w.8.D 2 % 6X6X6X6X6X6X6X6X6X6X6X6X6X6X6X6X6X6X6X6X",
"6X6X6X6X6X6X6X6X6X6X6X6X6X6X6X6X6X6Xo   8 D M M M D u ) 7.Z.K.L.e.{ L u N M M M D 2 o 6X6X6X6X6X6X6X6X6X6X6X6X6X6X6X6X6X6X6X6X6X",
"6X6X6X6X6X6X6X6X6X6X6X6X6X6X6X6X6X6X6X6X6X          O p L { 0.5.{ L u           o 6X6X6X6X6X6X6X6X6X6X6X6X6X6X6X6X6X6X6X6X6X6X6X",
"6X6X6X6X6X6X6X6X6X6X6X6X6X6X6X6X6X6X6X6X6X6X6X6X6X6X6X  p U U U U t   6X6X6X6X6X6X6X6X6X6X6X6X6X6X6X6X6X6X6X6X6X6X6X6X6X6X6X6X6X",
"6X6X6X6X6X6X6X6X6X6X6X6X6X6X6X6X6X6X6X6X6X6X6X6X6X6X6X. s k l l k w   6X6X6X6X6X6X6X6X6X6X6X6X6X6X6X6X6X6X6X6X6X6X6X6X6X6X6X6X6X",
"6X6X6X6X6X6X6X6X6X6X6X6X6X6X6X6X6X6X6X6X6X6X6X6X6X6XX * e h z z j w *   6X6X6X6X6X6X6X6X6X6X6X6X6X6X6X6X6X6X6X6X6X6X6X6X6X6X6X6X",
"6X6X6X6X6X6X6X6X6X6X6X6X6X6X6X6X6X6X6X6X6X6X6X6X6X$ = ; d h z z h s ; * 6X6X6X6X6X6X6X6X6X6X6X6X6X6X6X6X6X6X6X6X6X6X6X6X6X6X6X6X",
"6X6X6X6X6X6X6X6X6X6X6X6X6X6X6X6X6X6X6X6X6X6X6X6X  = d w d h z z h s w g $ 6X6X6X6X6X6X6X6X6X6X6X6X6X6X6X6X6X6X6X6X6X6X6X6X6X6X6X",
"6X6X6X6X6X6X6X6X6X6X6X6X6X6X6X6X6X6X6X6X6X6X6X6X  . = f j h z z h g e $   6X6X6X6X6X6X6X6X6X6X6X6X6X6X6X6X6X6X6X6X6X6X6X6X6X6X6X",
"6X6X6X6X6X6X6X6X6X6X6X6X6X6X6X6X6X6X6X6X6X6X6X6X6X6X6X- - r h h w - = 6X6X6X6X6X6X6X6X6X6X6X6X6X6X6X6X6X6X6X6X6X6X6X6X6X6X6X6X6X",
"6X6X6X6X6X6X6X6X6X6X6X6X6X6X6X6X6X6X6X6X6X6X6X6X6X6X6X    = w w $   6X6X6X6X6X6X6X6X6X6X6X6X6X6X6X6X6X6X6X6X6X6X6X6X6X6X6X6X6X6X",
"6X6X6X6X6X6X6X6X6X6X6X6X6X6X6X6X6X6X6X6X6X6X6X6X6X6X6X6X6X6Xo   6X6X6X6X6X6X6X6X6X6X6X6X6X6X6X6X6X6X6X6X6X6X6X6X6X6X6X6X6X6X6X6X"
};
